<?xml version="1.0" encoding="UTF-8" standalone="no"?>
<svg xmlns="http://www.w3.org/2000/svg" xmlns:xlink="http://www.w3.org/1999/xlink" width="48" height="48">
  <defs>
    <linearGradient id="e">
      <stop offset="0"/>
      <stop offset="1" stop-opacity="0"/>
    </linearGradient>
    <linearGradient id="a">
      <stop offset="0" stop-opacity="0"/>
      <stop offset=".5"/>
      <stop offset="1" stop-opacity="0"/>
    </linearGradient>
    <linearGradient xlink:href="#a" id="j" x1="302.85715" x2="302.85715" y1="366.64789" y2="609.50507" gradientTransform="matrix(2.77439 0 0 1.9697 -1892.179 -872.8854)" gradientUnits="userSpaceOnUse"/>
    <linearGradient id="f">
      <stop offset="0" stop-color="#fff"/>
      <stop offset=".5" stop-color="#fff520" stop-opacity=".89108908"/>
      <stop offset="1" stop-color="#fff300" stop-opacity="0"/>
    </linearGradient>
    <linearGradient id="g">
      <stop offset="0" stop-color="#727e0a"/>
      <stop offset="1" stop-color="#5b6508"/>
    </linearGradient>
    <linearGradient id="h">
      <stop offset="0"/>
      <stop offset="1" stop-opacity="0"/>
    </linearGradient>
    <linearGradient id="i">
      <stop offset="0" stop-color="#e9b15e"/>
      <stop offset="1" stop-color="#966416"/>
    </linearGradient>
    <linearGradient id="c">
      <stop offset="0" stop-color="#fff"/>
      <stop offset="1" stop-color="#c9c9c9"/>
    </linearGradient>
    <linearGradient id="d">
      <stop offset="0"/>
      <stop offset="1" stop-opacity="0"/>
    </linearGradient>
    <linearGradient id="b">
      <stop offset="0" stop-color="#fff"/>
      <stop offset="1" stop-color="#ddd"/>
    </linearGradient>
    <linearGradient xlink:href="#b" id="m" x1="16.25" x2="31.5" y1="12.25" y2="36.625" gradientTransform="matrix(1.10783 0 0 1 -1.877849 -.5)" gradientUnits="userSpaceOnUse"/>
    <linearGradient xlink:href="#c" id="q" x1="30.935921" x2="30.935921" y1="29.553486" y2="35.803486" gradientTransform="translate(7.344424 -.329669)" gradientUnits="userSpaceOnUse"/>
    <linearGradient xlink:href="#d" id="r" x1="20.661695" x2="22.626925" y1="35.817974" y2="36.217758" gradientTransform="rotate(10.462 23.5728106 67.72634769)" gradientUnits="userSpaceOnUse"/>
    <linearGradient xlink:href="#d" id="s" x1="22.686766" x2="21.408455" y1="36.3904" y2="35.739632" gradientTransform="scale(-1 1) rotate(12.127 -9.84534348 -292.03081659)" gradientUnits="userSpaceOnUse"/>
    <radialGradient xlink:href="#e" id="l" cx="605.71429" cy="486.64789" r="117.14286" fx="605.71429" fy="486.64789" gradientTransform="matrix(-2.77439 0 0 1.9697 112.7623 -872.8854)" gradientUnits="userSpaceOnUse"/>
    <radialGradient xlink:href="#e" id="k" cx="605.71429" cy="486.64789" r="117.14286" fx="605.71429" fy="486.64789" gradientTransform="matrix(2.77439 0 0 1.9697 -1891.633 -872.8854)" gradientUnits="userSpaceOnUse"/>
    <radialGradient xlink:href="#f" id="t" cx="55" cy="125" r="14.375" fx="55" fy="125" gradientUnits="userSpaceOnUse"/>
    <radialGradient xlink:href="#g" id="n" cx="16.214741" cy="19.836468" r="13.56536" fx="16.214741" fy="19.836468" gradientTransform="matrix(1 0 0 .68192 19.76231 14.9041)" gradientUnits="userSpaceOnUse"/>
    <radialGradient xlink:href="#h" id="o" cx="31.112698" cy="19.008621" r="8.6620579" fx="31.112698" fy="19.008621" gradientUnits="userSpaceOnUse"/>
    <radialGradient xlink:href="#i" id="p" cx="29.344931" cy="17.064077" r="9.1620579" fx="29.344931" fy="17.064077" gradientTransform="matrix(.788 0 0 .788 6.221198 3.617627)" gradientUnits="userSpaceOnUse"/>
  </defs>
  <g color="#000" transform="matrix(.02496 0 0 .01486 46.77222 36.60912)">
    <path fill="url(#j)" d="M-1559.2523-150.69685h1339.6335v478.35718h-1339.6335z" opacity=".40206185" overflow="visible" style="marker:none"/>
    <path fill="url(#k)" d="M-219.61876-150.68038v478.33079c142.874166.90045 345.40022-107.16966 345.40014-239.196175 0-132.026537-159.436816-239.134595-345.40014-239.134615z" opacity=".40206185" overflow="visible" style="marker:none"/>
    <path fill="url(#l)" d="M-1559.2523-150.68038v478.33079c-142.8742.90045-345.4002-107.16966-345.4002-239.196175 0-132.026537 159.4368-239.134595 345.4002-239.134615z" opacity=".40206185" overflow="visible" style="marker:none"/>
  </g>
  <rect width="43.897678" height="30" x="2.5534627" y="8.5" fill="url(#m)" fill-rule="evenodd" stroke="#939393" color="#000" overflow="visible" rx="2.75" ry="2.75" style="marker:none"/>
  <rect width="41.900925" height="27.74136" x="3.5477371" y="9.6293259" fill="none" stroke="#fff" stroke-width="1.00000024" color="#000" overflow="visible" rx="1.7500004" ry="1.7500002" style="marker:none"/>
  <g color="#000" transform="translate(-4.12233 8.44145) scale(.4348)">
    <path fill="url(#n)" fill-rule="evenodd" stroke="#404604" stroke-linecap="round" stroke-linejoin="round" stroke-width="2.29990602" d="M32.623488 41.30637H43.23009c3.005204 0 5.980484-1.101932 7.071067-4.242641 1.035639-2.982476.176777-8.662058-6.540737-13.258252H31.209274c-6.717514 4.24264-7.556991 10.044831-6.010407 13.435028 1.575595 3.45379 4.24264 4.065865 7.424621 4.065865z" overflow="visible" style="marker:none"/>
    <path fill="#9db029" fill-rule="evenodd" d="M37.694681 26.457128s-2.151323 1.660335-1.965991 3.660533c-2.041226-1.800794-2.099873-5.251524-2.099873-5.251524l4.065864 1.590991z" overflow="visible" style="marker:none"/>
    <path fill="none" stroke="#fff" stroke-linecap="round" stroke-linejoin="round" stroke-width="2.29990482" d="M33.2112 39.482542h9.297094c2.378845 0 4.734002-.872261 5.59728-3.358368.819787-2.360854-.08536-6.85667-5.402777-10.494902h-10.38576c-5.317416 3.358368-6.207218 7.951238-4.982982 10.634833 1.247203 2.733935 3.358368 3.218437 5.877145 3.218437z" opacity=".21518986" overflow="visible" style="marker:none"/>
    <path fill="#9db029" fill-rule="evenodd" d="M38.673109 26.457128s2.151323 1.660335 1.965991 3.660533c2.041226-1.800794 2.099873-5.251524 2.099873-5.251524l-4.065864 1.590991z" overflow="visible" style="marker:none"/>
    <path fill="url(#o)" fill-rule="evenodd" d="M39.774755 19.008621a8.6620579 8.6620579 0 1 1-17.324115 0 8.6620579 8.6620579 0 1 1 17.324115 0z" overflow="visible" style="marker:none" transform="translate(6.512314 3.170331)"/>
    <path fill="url(#p)" fill-rule="evenodd" stroke="#6f4709" stroke-linecap="round" stroke-linejoin="round" stroke-width="2.29990602" d="M39.774755 19.008621a8.6620579 8.6620579 0 1 1-17.324115 0 8.6620579 8.6620579 0 1 1 17.324115 0z" overflow="visible" style="marker:none" transform="translate(6.637314 -.329669)"/>
    <path fill="none" stroke="#fff" stroke-linecap="round" stroke-linejoin="round" stroke-width="3.07730651" d="M39.774755 19.008621a8.6620579 8.6620579 0 1 1-17.324115 0 8.6620579 8.6620579 0 1 1 17.324115 0z" opacity=".12658231" overflow="visible" style="marker:none" transform="translate(14.49712 4.47236) scale(.74738)"/>
    <path fill="url(#q)" fill-rule="evenodd" d="M42.346208 33.704972h4.24264l-2.474873-2.298097-.53033.707107-.530331-.53033-.707106 2.12132z" overflow="visible" style="marker:none"/>
    <path fill="url(#r)" fill-rule="evenodd" d="M28.310268 40.272078c-1.247607-.544969-1.805994-1.858277-1.805994-1.858277.841281-4.069136 3.719925-7.046216 3.719925-7.046216s-2.279321 6.411514-1.913931 8.904493z" opacity=".22784807" overflow="visible" style="marker:none"/>
    <path fill="url(#s)" fill-rule="evenodd" d="M47.215975 39.413727c1.231251-.580978 1.80438-2.002321 1.80438-2.002321-.95912-4.042983-3.976149-6.842821-3.976149-6.842821s2.464593 6.342602 2.171769 8.845142z" opacity=".22784807" overflow="visible" style="marker:none"/>
  </g>
  <path d="M21.342952 15.75347c-.000001.376956-.088539.666044-.265613.867265-.177076.199881-.418542.299821-.724398.299821-.124758 0-.244149-.023476-.358175-.070428v-.53525c.100611.076465.211954.114697.334028.114697.150245 0 .26293-.055671.338053-.167014.076463-.112684.114696-.281039.114696-.505067v-1.784837h.561409v1.780813m1.567518-1.030256c.313904.000002.56409.096589.750557.289759.186463.193175.279696.452751.279698.778729-.000002.354151-.099942.630495-.29982.829033-.199882.197198-.468178.295796-.804887.295797-.309883-.000001-.56208-.097258-.756594-.291772-.193173-.194514-.28976-.449395-.289759-.764643-.000001-.354149.101281-.631835.303844-.833058.202563-.202561.474883-.303843.816961-.303845m-.046281 1.760691c.163659 0 .296465-.058354.398419-.175063.103292-.11805.154939-.278356.154941-.48092-.000002-.205245-.050978-.366893-.152929-.484945-.101954-.11939-.232748-.179086-.392382-.179087-.158296.000001-.292444.06238-.402444.187136-.110002.123417-.165002.286407-.165002.488969 0 .199881.053659.357505.160978.472871.108659.114026.241465.171039.398419.171039m3.418758.374272h-.539274v-1.128854c-.000002-.189147-.028844-.325978-.086526-.410492-.057685-.085853-.156283-.128781-.295796-.128782-.122075.000001-.223357.046282-.303844.138843-.08049.092563-.120734.210613-.120734.35415v1.175135h-.545311v-3.050522h.545311v1.277758c.073781-.120731.165672-.211281.275674-.271649.111342-.060365.240794-.090548.388358-.09055.226709.000002.397076.07043.511104.211283.114023.140857.171036.35214.171038.633849v1.289831m2.471004 0h-.539275v-1.128854c-.000001-.189147-.028843-.325978-.086525-.410492-.057685-.085853-.156284-.128781-.295796-.128782-.122076.000001-.223357.046282-.303845.138843-.08049.092563-.120734.210613-.120733.35415v1.175135h-.545311v-2.060511h.545311v.287747c.07378-.120731.165672-.211281.275674-.271649.111341-.060365.240794-.090548.388358-.09055.226708.000002.397076.07043.511103.211283.114024.140857.171037.35214.171039.633849v1.289831m1.764715-2.88552h1.010133c.488297.000003.85452.117382 1.098671.352138.245488.234761.368233.586228.368236 1.054402-.000003.452079-.138175.811595-.414517 1.078549-.275005.266954-.647936.400431-1.118793.400431h-.94373v-2.88552m.561409 2.44082h.370248c.303172 0 .541285-.090549.714337-.271649.17439-.181099.261586-.428602.261589-.742509-.000003-.304514-.084516-.541284-.25354-.710313-.169028-.169024-.404457-.253537-.706288-.253539h-.386346v1.97801m3.356379-1.690263c.313904.000002.564089.096589.750557.289759.186463.193175.279696.452751.279698.778729-.000002.354151-.099942.630495-.29982.829033-.199882.197198-.468178.295796-.804887.295797-.309883-.000001-.562081-.097258-.756594-.291772-.193174-.194514-.28976-.449395-.28976-.764643 0-.354149.101282-.631835.303845-.833058.202563-.202561.474883-.303843.816961-.303845m-.046281 1.760691c.163659 0 .296465-.058354.398419-.175063.103292-.11805.154939-.278356.15494-.48092-.000001-.205245-.050977-.366893-.152928-.484945-.101954-.11939-.232748-.179086-.392383-.179087-.158295.000001-.292443.06238-.402443.187136-.110002.123417-.165003.286407-.165002.488969-.000001.199881.053658.357505.160977.472871.108659.114026.241465.171039.39842.171039m3.300038-.537263h-1.372333c-.000001.169028.051646.300492.154941.394395.104634.092563.249514.138844.434639.138843.203903.000001.40043-.061037.58958-.183112v.446713c-.211956.110001-.449397.165002-.712325.165002-.317932 0-.566776-.093233-.746533-.279699-.178417-.186465-.267625-.441345-.267625-.764642 0-.348784.095245-.626469.285735-.833059.191831-.207927.444028-.311891.756594-.311893.275001.000002.489638.085856.643909.257563.15561.17037.233416.408482.233418.714338v.255551m-.503055-.362199c-.000001-.143537-.036221-.25555-.10866-.33604-.071099-.080487-.172381-.120731-.303844-.120733-.119393.000002-.222687.041587-.309882.124757-.087197.081832-.136161.192504-.146892.332016h.869278" font-family="Segoe" font-size="4.12102222" font-weight="bold" style="text-align:start;line-height:120.00000477%"/>
  <rect width="17.375" height="2" x="21" y="19.977854" fill="#8d8d8d" fill-rule="evenodd" color="#000" opacity=".3976608" overflow="visible" rx="1.03125" ry="1.03125" style="marker:none"/>
  <rect width="14" height="2" x="21" y="23" fill="#8d8d8d" fill-rule="evenodd" color="#000" opacity=".3976608" overflow="visible" rx="1.03125" ry="1.03125" style="marker:none"/>
  <g fill-rule="evenodd" color="#000" opacity=".48538012" transform="matrix(1 0 0 .83333 0 5)">
    <rect width="1" height="6" x="6" y="30" opacity="1" overflow="visible" rx="0" ry="0" style="marker:none"/>
    <rect width="1.9375" height="3.6000135" x="8.0846453" y="30" opacity="1" overflow="visible" rx="0" ry="0" style="marker:none"/>
    <path d="M11 30h1v3.6000135h-1zm2 0h2v3.6000135h-2zm3 0h1v3.6000135h-1zm2 0h1v3.6000135h-1zm3 0h1v3.6000135h-1zm2 0h2v3.6000135h-2zm3 0h2v3.6000135h-2zm3 0h1v3.6000135h-1zm2 0h1v3.6000135h-1zm2 0h1v3.6000135h-1zm2 0h2v3.6000135h-2zm4 0h2v3.6000135h-2zm3 0h1v6h-1z" opacity="1" overflow="visible" style="marker:none"/>
  </g>
  <path d="M8.9374916 34.398197c.0749594.016027.1333766.049371.1752516.100033.0423904.050663.063586.113216.0635869.187659-9e-7 .11425-.0392903.202651-.1178684.265204-.0785796.062553-.1902442.093829-.3349943.093829-.0485952 0-.098741-.004911-.1504373-.014733-.0511799-.009306-.1041689-.023522-.1589672-.04265v-.151213c.043425.025332.0909859.04446.1426828.057384.0516963.012924.1057193.019386.162069.019386.0982231 0 .1729247-.019386.224105-.058159.051696-.038772.0775443-.095122.077545-.169048-7e-7-.068239-.0240397-.121487-.0721168-.159743-.0475616-.038772-.1139917-.058158-.1992907-.058158H8.614129v-.128725h.1411318c.0770275.000001.1359616-.01525.1768026-.045752.0408397-.031017.0612598-.075476.0612605-.133377-7e-7-.05945-.0211963-.104943-.0635868-.136479-.0418749-.032051-.1021015-.048077-.1806799-.048078-.0429086.000001-.0889186.004654-.13803.013958-.0491121.009306-.1031351.023782-.1620691.043425v-.139581c.059451-.016542.1150248-.028949.1667218-.037221.0522132-.008271.101325-.012406.1473354-.012408.1189018.000002.2129896.027142.2822638.081423.0692727.053765.1039094.126657.1039103.218677-9e-7 .064104-.0183532.118386-.055057.162844-.0367054.043943-.0889189.074444-.1566408.091503m.6715395.492411h.5466919v.131826h-.7351262v-.131826c.059451-.061519.1403562-.143975.2427158-.247369.1028759-.10391.1674966-.170857.1938625-.200841.0501451-.056349.0850403-.10391.1046857-.142683.020161-.039289.0302419-.077803.0302425-.115542-6e-7-.061518-.0217132-.111664-.0651377-.150437-.0429088-.038772-.0989997-.058158-.1682727-.058159-.0491122.000001-.1010673.008531-.1558654.02559-.0542817.017061-.1124404.042909-.1744762.077545v-.158192c.0630697-.02533.1220039-.044458.1768026-.057383.0547981-.012923.1049438-.019385.1504372-.019387.1199357.000002.2155744.029986.2869169.089953.07134.059969.107011.140099.107012.240389-.000001.047562-.009048.092796-.027141.135704-.017578.042392-.049888.092537-.096931.150437-.012925.014993-.054024.058418-.1232968.130276-.0692741.071341-.1669807.171374-.2931201.300099m1.3066329-.889441-.395479.618033h.395479v-.618033m-.041099-.136479h.196965v.754512h.16517v.130276h-.16517v.272958h-.155866v-.272958h-.522653v-.151213l.481554-.733575m.623462 0h.614932v.131826h-.471474v.283815c.022746-.007754.045493-.013441.06824-.01706.022746-.004135.045492-.006203.068239-.006204.129241.000001.231601.035413.307078.106237.075477.070825.113215.166722.113216.287692-.000001.124589-.038773.22152-.116317.290793-.077546.068757-.186884.103135-.328016.103135-.048595 0-.098224-.004135-.148886-.012407-.050146-.008271-.102101-.020679-.155865-.037222v-.157416c.046526.025332.094604.044201.144233.056608.049629.012407.102101.018611.157417.018611.089434 0 .160259-.023522.212473-.070566.052213-.047044.07832-.110889.07832-.191536 0-.080647-.026107-.144492-.07832-.191536-.052214-.047044-.123039-.070566-.212473-.070566-.041875 0-.083749.004653-.125623.013958-.041358.009306-.083749.023781-.127174.043425v-.581587m1.850223.103134c-.080647.000001-.14139.039808-.18223.11942-.040324.079096-.060486.198257-.060486.357482 0 .158709.020162.27787.060486.357482.04084.079097.101583.118644.18223.118644.081163 0 .141907-.039547.182231-.118644.04084-.079612.06126-.198773.061261-.357482-.000001-.159225-.020421-.278386-.061261-.357482-.040324-.079612-.101068-.119419-.182231-.11942m0-.124072c.129758.000002.228757.05144.296998.154315.068755.10236.103133.251247.103134.446659-.000001.194897-.034379.343783-.103134.446659-.068241.10236-.16724.153539-.296998.153539-.129759 0-.229016-.051179-.297772-.153539-.06824-.102876-.10236-.251762-.10236-.446659 0-.195412.03412-.344299.10236-.446659.068756-.102875.168013-.154313.297772-.154315m.677743.020938h.614932v.131826h-.471473v.283815c.022746-.007754.045492-.013441.068239-.01706.022746-.004135.045493-.006203.06824-.006204.129241.000001.2316.035413.307078.106237.075476.070825.113215.166722.113216.287692-.000001.124589-.038774.22152-.116318.290793-.077545.068757-.186884.103135-.328015.103135-.048595 0-.098224-.004135-.148886-.012407-.050146-.008271-.102102-.020679-.155866-.037222v-.157416c.046527.025332.094605.044201.144234.056608.049628.012407.1021.018611.157416.018611.089435 0 .160259-.023522.212473-.070566.052213-.047044.07832-.110889.078321-.191536-.000001-.080647-.026108-.144492-.078321-.191536-.052214-.047044-.123038-.070566-.212473-.070566-.041875 0-.083749.004653-.125623.013958-.041357.009306-.083749.023781-.127174.043425v-.581587m1.011187 0h.614932v.131826h-.471474v.283815c.022746-.007754.045493-.013441.06824-.01706.022746-.004135.045492-.006203.068239-.006204.129242.000001.231601.035413.307079.106237.075476.070825.113214.166722.113215.287692-.000001.124589-.038773.22152-.116317.290793-.077546.068757-.186884.103135-.328016.103135-.048595 0-.098223-.004135-.148886-.012407-.050146-.008271-.102101-.020679-.155865-.037222v-.157416c.046527.025332.094604.044201.144233.056608.049629.012407.102101.018611.157417.018611.089434 0 .160259-.023522.212473-.070566.052213-.047044.07832-.110889.07832-.191536 0-.080647-.026107-.144492-.07832-.191536-.052214-.047044-.123039-.070566-.212473-.070566-.041875 0-.083749.004653-.125623.013958-.041358.009306-.083749.023781-.127174.043425v-.581587m.970088 0h.744432v.066688l-.420294 1.091058h-.16362l.395479-1.02592h-.555997v-.131826m1.557879 0h.614931v.131826h-.471473v.283815c.022746-.007754.045492-.013441.068239-.01706.022746-.004135.045493-.006203.06824-.006204.129241.000001.2316.035413.307078.106237.075476.070825.113215.166722.113216.287692-.000001.124589-.038774.22152-.116318.290793-.077545.068757-.186884.103135-.328015.103135-.048595 0-.098224-.004135-.148886-.012407-.050146-.008271-.102101-.020679-.155866-.037222v-.157416c.046527.025332.094605.044201.144234.056608.049628.012407.1021.018611.157416.018611.089435 0 .160259-.023522.212473-.070566.052213-.047044.07832-.110889.078321-.191536-.000001-.080647-.026108-.144492-.078321-.191536-.052214-.047044-.123038-.070566-.212473-.070566-.041874 0-.083749.004653-.125623.013958-.041357.009306-.083748.023781-.127173.043425v-.581587m1.036776 1.02592h.255898v-.883238l-.278386.055833v-.142683l.276836-.055832h.15664v1.02592h.255899v.131826h-.666887v-.131826m1.31904-.922786c-.080647.000001-.141391.039808-.182231.11942-.040323.079096-.060485.198257-.060485.357482 0 .158709.020162.27787.060485.357482.04084.079097.101584.118644.182231.118644.081163 0 .141907-.039547.182231-.118644.04084-.079612.06126-.198773.06126-.357482 0-.159225-.02042-.278386-.06126-.357482-.040324-.079612-.101068-.119419-.182231-.11942m0-.124072c.129758.000002.228757.05144.296997.154315.068756.10236.103134.251247.103135.446659-.000001.194897-.034379.343783-.103135.446659-.06824.10236-.167239.153539-.296997.153539-.129759 0-.229016-.051179-.297773-.153539-.068239-.102876-.102359-.251762-.102359-.446659 0-.195412.03412-.344299.102359-.446659.068757-.102875.168014-.154313.297773-.154315m1.030573.537387c-.070308.000001-.12614.02404-.167497.072117-.040841.048078-.061261.113992-.061261.19774 0 .083232.02042.149145.061261.197739.041357.048078.097189.072117.167497.072117.070307 0 .125881-.024039.166722-.072117.041356-.048594.062035-.114507.062036-.197739-.000001-.083748-.02068-.149662-.062036-.19774-.040841-.048077-.096415-.072116-.166722-.072117m.310955-.49086v.142683c-.03929-.01861-.079096-.032826-.119419-.04265-.039807-.009821-.079355-.014732-.118644-.014733-.103393.000001-.182489.034896-.237287.104686-.054282.069791-.0853.175252-.093054.316383.0305-.044975.068756-.079353.114766-.103135.04601-.024296.096673-.036445.151988-.036446.116317.000001.208079.035413.275285.106237.067722.070308.101583.166205.101584.287692-.000001.118902-.035155.214283-.105461.286141-.070308.071858-.163879.107787-.280713.107787-.133895 0-.236254-.051179-.307078-.153539-.070825-.102876-.106237-.251762-.106237-.446659 0-.183005.043425-.32879.130276-.437354.08685-.109078.203426-.163618.349728-.16362.039289.000002.078836.003879.118644.011632.040322.007756.082196.019388.125622.034895m.852995-.025589h.614932v.131826h-.471474v.283815c.022747-.007754.045493-.013441.06824-.01706.022746-.004135.045493-.006203.06824-.006204.129241.000001.2316.035413.307078.106237.075476.070825.113215.166722.113215.287692 0 .124589-.038773.22152-.116317.290793-.077546.068757-.186884.103135-.328015.103135-.048596 0-.098224-.004135-.148887-.012407-.050146-.008271-.102101-.020679-.155865-.037222v-.157416c.046527.025332.094605.044201.144234.056608.049628.012407.1021.018611.157416.018611.089435 0 .160259-.023522.212473-.070566.052213-.047044.07832-.110889.078321-.191536-.000001-.080647-.026108-.144492-.078321-.191536-.052214-.047044-.123038-.070566-.212473-.070566-.041875 0-.083749.004653-.125623.013958-.041358.009306-.083749.023781-.127174.043425v-.581587m1.440011.136479-.39548.618033h.39548v-.618033m-.041099-.136479h.196964v.754512h.165171v.130276h-.165171v.272958h-.155865v-.272958h-.522654v-.151213l.481555-.733575m.956905.103134c-.080647.000001-.141391.039808-.182231.11942-.040324.079096-.060485.198257-.060485.357482 0 .158709.020161.27787.060485.357482.04084.079097.101584.118644.182231.118644.081163 0 .141907-.039547.182231-.118644.040839-.079612.061259-.198773.06126-.357482-.000001-.159225-.020421-.278386-.06126-.357482-.040324-.079612-.101068-.119419-.182231-.11942m0-.124072c.129758.000002.228757.05144.296997.154315.068756.10236.103134.251247.103135.446659-.000001.194897-.034379.343783-.103135.446659-.06824.10236-.167239.153539-.296997.153539-.129759 0-.229017-.051179-.297773-.153539-.06824-.102876-.102359-.251762-.102359-.446659 0-.195412.034119-.344299.102359-.446659.068756-.102875.168014-.154313.297773-.154315m1.030572.537387c-.070308.000001-.12614.02404-.167497.072117-.040841.048078-.061261.113992-.061261.19774 0 .083232.02042.149145.061261.197739.041357.048078.097189.072117.167497.072117.070307 0 .12588-.024039.166721-.072117.041357-.048594.062036-.114507.062036-.197739 0-.083748-.020679-.149662-.062036-.19774-.040841-.048077-.096414-.072116-.166721-.072117m.310955-.49086v.142683c-.03929-.01861-.079096-.032826-.119419-.04265-.039807-.009821-.079355-.014732-.118644-.014733-.103394.000001-.18249.034896-.237288.104686-.054281.069791-.085299.175252-.093054.316383.030501-.044975.068757-.079353.114767-.103135.04601-.024296.096672-.036445.151988-.036446.116317.000001.208078.035413.275285.106237.067722.070308.101583.166205.101584.287692-.000001.118902-.035155.214283-.105461.286141-.070309.071858-.163879.107787-.280713.107787-.133895 0-.236254-.051179-.307078-.153539-.070825-.102876-.106237-.251762-.106237-.446659 0-.183005.043425-.32879.130276-.437354.08685-.109078.203425-.163618.349727-.16362.039289.000002.078837.003879.118644.011632.040323.007756.082197.019388.125623.034895m.852996-.025589h.614932v.131826h-.471474v.283815c.022746-.007754.045493-.013441.06824-.01706.022746-.004135.045492-.006203.068239-.006204.129241.000001.231601.035413.307078.106237.075477.070825.113215.166722.113216.287692-.000001.124589-.038773.22152-.116317.290793-.077546.068757-.186884.103135-.328016.103135-.048595 0-.098224-.004135-.148886-.012407-.050146-.008271-.102101-.020679-.155865-.037222v-.157416c.046526.025332.094604.044201.144233.056608.049629.012407.102101.018611.157417.018611.089434 0 .160259-.023522.212473-.070566.052213-.047044.07832-.110889.07832-.191536 0-.080647-.026107-.144492-.07832-.191536-.052214-.047044-.123039-.070566-.212473-.070566-.041875 0-.083749.004653-.125623.013958-.041358.009306-.083749.023781-.127174.043425v-.581587m1.44001.136479-.395479.618033h.395479v-.618033m-.041099-.136479h.196965v.754512h.165171v.130276h-.165171v.272958h-.155866v-.272958h-.522653v-.151213l.481554-.733575m.976292.516449c-.070308.000001-.12614.02404-.167497.072117-.040841.048078-.061261.113992-.061261.19774 0 .083232.02042.149145.061261.197739.041357.048078.097189.072117.167497.072117.070307 0 .125881-.024039.166722-.072117.041356-.048594.062035-.114507.062036-.197739-.000001-.083748-.02068-.149662-.062036-.19774-.040841-.048077-.096415-.072116-.166722-.072117m.310955-.49086v.142683c-.03929-.01861-.079096-.032826-.119419-.04265-.039807-.009821-.079355-.014732-.118644-.014733-.103394.000001-.18249.034896-.237288.104686-.054281.069791-.085299.175252-.093054.316383.030501-.044975.068757-.079353.114767-.103135.04601-.024296.096672-.036445.151988-.036446.116317.000001.208079.035413.275285.106237.067722.070308.101583.166205.101584.287692-.000001.118902-.035155.214283-.105461.286141-.070309.071858-.163879.107787-.280713.107787-.133895 0-.236254-.051179-.307078-.153539-.070825-.102876-.106237-.251762-.106237-.446659 0-.183005.043425-.32879.130276-.437354.08685-.109078.203426-.163618.349728-.16362.039288.000002.078836.003879.118643.011632.040323.007756.082197.019388.125623.034895m.347402-.025589h.614931v.131826h-.471473v.283815c.022746-.007754.045493-.013441.06824-.01706.022746-.004135.045492-.006203.068239-.006204.129241.000001.2316.035413.307078.106237.075477.070825.113215.166722.113216.287692-.000001.124589-.038773.22152-.116318.290793-.077545.068757-.186884.103135-.328015.103135-.048595 0-.098224-.004135-.148886-.012407-.050146-.008271-.102101-.020679-.155866-.037222v-.157416c.046527.025332.094605.044201.144234.056608.049629.012407.102101.018611.157416.018611.089435 0 .160259-.023522.212474-.070566.052213-.047044.078319-.110889.07832-.191536-.000001-.080647-.026107-.144492-.07832-.191536-.052215-.047044-.123039-.070566-.212474-.070566-.041874 0-.083749.004653-.125622.013958-.041358.009306-.083749.023781-.127174.043425v-.581587m1.47568 0h.744432v.066688l-.420294 1.091058h-.16362l.395479-1.02592h-.555997v-.131826m1.385731.103134c-.080648.000001-.141391.039808-.182231.11942-.040324.079096-.060485.198257-.060485.357482 0 .158709.020161.27787.060485.357482.04084.079097.101583.118644.182231.118644.081163 0 .141906-.039547.18223-.118644.04084-.079612.06126-.198773.061261-.357482-.000001-.159225-.020421-.278386-.061261-.357482-.040324-.079612-.101067-.119419-.18223-.11942m0-.124072c.129758.000002.228757.05144.296997.154315.068756.10236.103134.251247.103135.446659-.000001.194897-.034379.343783-.103135.446659-.06824.10236-.167239.153539-.296997.153539-.129759 0-.229017-.051179-.297773-.153539-.06824-.102876-.10236-.251762-.102359-.446659-.000001-.195412.034119-.344299.102359-.446659.068756-.102875.168014-.154313.297773-.154315m1.030571.537387c-.070308.000001-.126141.02404-.167498.072117-.04084.048078-.06126.113992-.06126.19774 0 .083232.02042.149145.06126.197739.041357.048078.09719.072117.167498.072117.070306 0 .12588-.024039.166721-.072117.041357-.048594.062036-.114507.062036-.197739 0-.083748-.020679-.149662-.062036-.19774-.040841-.048077-.096415-.072116-.166721-.072117m.310955-.49086v.142683c-.03929-.01861-.079097-.032826-.119419-.04265-.039807-.009821-.079355-.014732-.118644-.014733-.103394.000001-.18249.034896-.237288.104686-.054282.069791-.0853.175252-.093054.316383.030501-.044975.068756-.079353.114767-.103135.046009-.024296.096672-.036445.151988-.036446.116317.000001.208078.035413.275285.106237.067721.070308.101583.166205.101584.287692-.000001.118902-.035155.214283-.105462.286141-.070308.071858-.163879.107787-.280712.107787-.133895 0-.236254-.051179-.307079-.153539-.070824-.102876-.106236-.251762-.106236-.446659 0-.183005.043425-.32879.130275-.437354.08685-.109078.203426-.163618.349728-.16362.039289.000002.078837.003879.118644.011632.040323.007756.082197.019388.125623.034895m.347403-.025589h.614932v.131826h-.471473v.283815c.022746-.007754.045492-.013441.068239-.01706.022746-.004135.045493-.006203.06824-.006204.129241.000001.2316.035413.307078.106237.075476.070825.113215.166722.113216.287692-.000001.124589-.038774.22152-.116318.290793-.077546.068757-.186884.103135-.328015.103135-.048595 0-.098224-.004135-.148887-.012407-.050146-.008271-.102101-.020679-.155865-.037222v-.157416c.046527.025332.094605.044201.144234.056608.049628.012407.1021.018611.157416.018611.089435 0 .160259-.023522.212473-.070566.052213-.047044.07832-.110889.078321-.191536-.000001-.080647-.026108-.144492-.078321-.191536-.052214-.047044-.123038-.070566-.212473-.070566-.041875 0-.083749.004653-.125623.013958-.041357.009306-.083749.023781-.127174.043425v-.581587m1.47568 0h.744432v.066688l-.420293 1.091058h-.16362l.395479-1.02592h-.555998v-.131826m1.405116.516449c-.070308.000001-.126141.02404-.167498.072117-.04084.048078-.06126.113992-.06126.19774 0 .083232.02042.149145.06126.197739.041357.048078.09719.072117.167498.072117.070306 0 .12588-.024039.166721-.072117.041357-.048594.062036-.114507.062036-.197739 0-.083748-.020679-.149662-.062036-.19774-.040841-.048077-.096415-.072116-.166721-.072117m.310955-.49086v.142683c-.03929-.01861-.079097-.032826-.119419-.04265-.039807-.009821-.079355-.014732-.118644-.014733-.103394.000001-.18249.034896-.237288.104686-.054282.069791-.0853.175252-.093054.316383.030501-.044975.068756-.079353.114767-.103135.046009-.024296.096672-.036445.151988-.036446.116317.000001.208078.035413.275285.106237.067721.070308.101583.166205.101584.287692-.000001.118902-.035155.214283-.105462.286141-.070308.071858-.163879.107787-.280712.107787-.133895 0-.236254-.051179-.307079-.153539-.070824-.102876-.106236-.251762-.106236-.446659 0-.183005.043425-.32879.130275-.437354.08685-.109078.203426-.163618.349728-.16362.039289.000002.078837.003879.118644.011632.040323.007756.082197.019388.125623.034895m.306303-.025589h.744432v.066688l-.420294 1.091058h-.16362l.395479-1.02592h-.555997v-.131826m1.055387 1.133707v-.142682c.039289.01861.079096.032827.119419.042649.040323.009823.079871.014734.118644.014734.103393 0 .18223-.034637.236512-.10391.054798-.069791.086074-.17551.09383-.317159-.029985.044459-.067982.078579-.113991.102359-.046011.023781-.096932.035671-.152764.035671-.115801 0-.207562-.034895-.275285-.104686-.067206-.070307-.100808-.166204-.100808-.287692 0-.118901.035153-.214282.105461-.286141.070307-.071857.163878-.107786.280713-.107788.133893.000002.235994.05144.306302.154315.070824.10236.106236.251247.106237.446659-.000001.18249-.043426.328274-.130275.437354-.086335.108563-.202652.162844-.348953.162844-.03929 0-.079096-.003877-.119419-.011631-.040324-.007755-.082198-.019387-.125623-.034896m.311731-.490859c.070307 0 .125881-.024039.166721-.072117.041357-.048078.062036-.113991.062036-.19774 0-.083231-.020679-.148885-.062036-.196964-.04084-.048594-.096414-.072892-.166721-.072893-.070308.000001-.12614.024299-.167497.072893-.040841.048079-.061261.113733-.061261.196964 0 .083749.02042.149662.061261.19774.041357.048078.097189.072117.167497.072117m.699456.490859v-.142682c.039289.01861.079095.032827.119419.042649.040323.009823.079871.014734.118644.014734.103392 0 .18223-.034637.236512-.10391.054798-.069791.086074-.17551.093829-.317159-.029984.044459-.067982.078579-.113991.102359-.04601.023781-.096932.035671-.152763.035671-.115801 0-.207563-.034895-.275285-.104686-.067206-.070307-.100809-.166204-.100809-.287692 0-.118901.035154-.214282.105462-.286141.070307-.071857.163878-.107786.280712-.107788.133894.000002.235995.05144.306303.154315.070824.10236.106236.251247.106237.446659-.000001.18249-.043426.328274-.130276.437354-.086334.108563-.202651.162844-.348952.162844-.03929 0-.079097-.003877-.11942-.011631-.040323-.007755-.082197-.019387-.125622-.034896m.31173-.490859c.070307 0 .125881-.024039.166722-.072117.041357-.048078.062035-.113991.062036-.19774-.000001-.083231-.020679-.148885-.062036-.196964-.040841-.048594-.096415-.072892-.166722-.072893-.070307.000001-.12614.024299-.167497.072893-.04084.048079-.061261.113733-.06126.196964-.000001.083749.02042.149662.06126.19774.041357.048078.09719.072117.167497.072117" font-family="Bitstream Vera Sans" font-size="1.58812129" style="line-height:120.00000477%"/>
  <path fill="url(#t)" d="M69.375 125a14.375 14.375 0 1 1-28.75 0 14.375 14.375 0 1 1 28.75 0z" color="#000" display="block" style="marker:none" transform="translate(5.632444 -67.63531) scale(.61113)"/>
</svg>