<?xml version="1.0" encoding="UTF-8" standalone="no"?>
<!-- Created with Inkscape (http://www.inkscape.org/) -->
<svg
   xmlns:dc="http://purl.org/dc/elements/1.1/"
   xmlns:cc="http://web.resource.org/cc/"
   xmlns:rdf="http://www.w3.org/1999/02/22-rdf-syntax-ns#"
   xmlns:svg="http://www.w3.org/2000/svg"
   xmlns="http://www.w3.org/2000/svg"
   xmlns:xlink="http://www.w3.org/1999/xlink"
   xmlns:sodipodi="http://sodipodi.sourceforge.net/DTD/sodipodi-0.dtd"
   xmlns:inkscape="http://www.inkscape.org/namespaces/inkscape"
   width="48"
   height="48"
   id="hx4700"
   sodipodi:version="0.32"
   inkscape:version="0.45.1"
   sodipodi:docname="pda-hp-ipaq-hx4700.svg"
   inkscape:output_extension="org.inkscape.output.svg.inkscape"
   sodipodi:docbase="/home/ph5/Bilder/icons/scalable/devices"
   inkscape:export-filename=""
   inkscape:export-xdpi="96"
   inkscape:export-ydpi="96"
   version="1.0">
  <defs
     id="defs3722">
    <linearGradient
       inkscape:collect="always"
       id="linearGradient19278">
      <stop
         style="stop-color:#000000;stop-opacity:1;"
         offset="0"
         id="stop19280" />
      <stop
         style="stop-color:#000000;stop-opacity:0;"
         offset="1"
         id="stop19282" />
    </linearGradient>
    <radialGradient
       inkscape:collect="always"
       xlink:href="#linearGradient19278"
       id="radialGradient19284"
       gradientTransform="scale(1.357519,0.736638)"
       cx="17.579761"
       cy="47.402553"
       fx="17.579761"
       fy="47.402553"
       r="16.798437"
       gradientUnits="userSpaceOnUse" />
    <linearGradient
       inkscape:collect="always"
       id="linearGradient3243">
      <stop
         style="stop-color:#d3d7cf;stop-opacity:1"
         offset="0"
         id="stop3245" />
      <stop
         style="stop-color:#555753;stop-opacity:1"
         offset="1"
         id="stop3247" />
    </linearGradient>
    <linearGradient
       id="linearGradient10668"
       inkscape:collect="always">
      <stop
         id="stop10670"
         offset="0"
         style="stop-color:#ffffff;stop-opacity:1" />
      <stop
         id="stop10672"
         offset="1"
         style="stop-color:#ffffff;stop-opacity:0" />
    </linearGradient>
    <linearGradient
       inkscape:collect="always"
       id="linearGradient10657">
      <stop
         style="stop-color:#ffffff;stop-opacity:1"
         offset="0"
         id="stop10659" />
      <stop
         style="stop-color:#ffffff;stop-opacity:0"
         offset="1"
         id="stop10661" />
    </linearGradient>
    <linearGradient
       inkscape:collect="always"
       id="linearGradient10649">
      <stop
         style="stop-color:#333036;stop-opacity:1;"
         offset="0"
         id="stop10651" />
      <stop
         style="stop-color:#333036;stop-opacity:0;"
         offset="1"
         id="stop10653" />
    </linearGradient>
    <linearGradient
       inkscape:collect="always"
       id="linearGradient10614">
      <stop
         style="stop-color:#3465a4;stop-opacity:1"
         offset="0"
         id="stop10616" />
      <stop
         style="stop-color:#183766;stop-opacity:1"
         offset="1"
         id="stop10618" />
    </linearGradient>
    <linearGradient
       inkscape:collect="always"
       id="linearGradient2729">
      <stop
         style="stop-color:#ffffff;stop-opacity:1;"
         offset="0"
         id="stop2731" />
      <stop
         style="stop-color:#ffffff;stop-opacity:0;"
         offset="1"
         id="stop2733" />
    </linearGradient>
    <linearGradient
       id="linearGradient6638">
      <stop
         style="stop-color:#ffffff;stop-opacity:1;"
         offset="0"
         id="stop6640" />
      <stop
         style="stop-color:#ffffff;stop-opacity:0;"
         offset="1"
         id="stop6642" />
    </linearGradient>
    <linearGradient
       inkscape:collect="always"
       xlink:href="#linearGradient6638"
       id="linearGradient3535"
       gradientUnits="userSpaceOnUse"
       gradientTransform="matrix(0.8749637,0,0,0.8750181,-25.175697,29.558337)"
       x1="56.203125"
       y1="14.21875"
       x2="56.203125"
       y2="10.71875" />
    <linearGradient
       id="linearGradient6745">
      <stop
         style="stop-color:#ffffff;stop-opacity:0;"
         offset="0"
         id="stop6747" />
      <stop
         style="stop-color:#ffffff;stop-opacity:1;"
         offset="1"
         id="stop6749" />
    </linearGradient>
    <linearGradient
       inkscape:collect="always"
       xlink:href="#linearGradient6745"
       id="linearGradient3533"
       gradientUnits="userSpaceOnUse"
       gradientTransform="matrix(0.75,0,0,1,-17.359895,1.7166986)"
       x1="55.146526"
       y1="6.2833014"
       x2="55.146526"
       y2="7.2833014" />
    <linearGradient
       id="linearGradient8203">
      <stop
         style="stop-color:#ffffff;stop-opacity:1;"
         offset="0"
         id="stop8205" />
      <stop
         style="stop-color:#ffffff;stop-opacity:0;"
         offset="1"
         id="stop8207" />
    </linearGradient>
    <linearGradient
       inkscape:collect="always"
       xlink:href="#linearGradient8203"
       id="linearGradient3531"
       gradientUnits="userSpaceOnUse"
       gradientTransform="translate(-9.6979522e-8,-0.4943352)"
       x1="12.5"
       y1="3.500001"
       x2="46.875"
       y2="64.25" />
    <linearGradient
       inkscape:collect="always"
       xlink:href="#linearGradient2729"
       id="linearGradient3923"
       x1="69.998138"
       y1="2.204505"
       x2="88.981941"
       y2="47.987698"
       gradientUnits="userSpaceOnUse"
       gradientTransform="translate(-56.99814,0)" />
    <linearGradient
       inkscape:collect="always"
       xlink:href="#linearGradient10649"
       id="linearGradient10655"
       x1="40"
       y1="23"
       x2="56.013611"
       y2="23"
       gradientUnits="userSpaceOnUse" />
    <linearGradient
       inkscape:collect="always"
       xlink:href="#linearGradient10657"
       id="linearGradient10663"
       x1="45.5625"
       y1="0.62499988"
       x2="51.0625"
       y2="46.0625"
       gradientUnits="userSpaceOnUse" />
    <linearGradient
       inkscape:collect="always"
       xlink:href="#linearGradient10668"
       id="linearGradient10666"
       gradientUnits="userSpaceOnUse"
       x1="42.256805"
       y1="2.9375"
       x2="65.638611"
       y2="35.8125"
       gradientTransform="matrix(1,0,0,-1,0,48)" />
    <radialGradient
       inkscape:collect="always"
       xlink:href="#linearGradient3243"
       id="radialGradient3249"
       cx="53.5"
       cy="5.1382136"
       fx="53.5"
       fy="5.1382136"
       r="1.5"
       gradientTransform="matrix(-2.9008359,-2.7141853e-6,2.6835559e-6,-2.3253869,179.6947,17.586695)"
       gradientUnits="userSpaceOnUse" />
    <linearGradient
       inkscape:collect="always"
       xlink:href="#linearGradient10668"
       id="linearGradient3315"
       gradientUnits="userSpaceOnUse"
       gradientTransform="translate(-29,0)"
       x1="44.006805"
       y1="1.9999999"
       x2="56.889801"
       y2="10.476215" />
    <linearGradient
       inkscape:collect="always"
       xlink:href="#linearGradient10668"
       id="linearGradient3319"
       gradientUnits="userSpaceOnUse"
       gradientTransform="translate(-29,0)"
       x1="48.256805"
       y1="5.1875"
       x2="65.327301"
       y2="15.476215" />
    <linearGradient
       inkscape:collect="always"
       xlink:href="#linearGradient10668"
       id="linearGradient3432"
       gradientUnits="userSpaceOnUse"
       gradientTransform="translate(5,1.0000002)"
       x1="43.944305"
       y1="1.9999999"
       x2="56.889801"
       y2="10.476215" />
    <linearGradient
       inkscape:collect="always"
       xlink:href="#linearGradient10614"
       id="linearGradient3434"
       gradientUnits="userSpaceOnUse"
       gradientTransform="translate(5,1.0000002)"
       x1="56.374367"
       y1="36.795494"
       x2="54.472271"
       y2="18.196699" />
    <linearGradient
       inkscape:collect="always"
       xlink:href="#linearGradient10668"
       id="linearGradient3436"
       gradientUnits="userSpaceOnUse"
       gradientTransform="translate(5,1.0000002)"
       x1="44"
       y1="2.3125"
       x2="64.952301"
       y2="14.976215" />
    <linearGradient
       inkscape:collect="always"
       xlink:href="#linearGradient10668"
       id="linearGradient3438"
       gradientUnits="userSpaceOnUse"
       gradientTransform="translate(5,1.0000002)"
       x1="48.256805"
       y1="5.1875"
       x2="65.327301"
       y2="15.476215" />
    <radialGradient
       inkscape:collect="always"
       xlink:href="#linearGradient3243"
       id="radialGradient3440"
       gradientUnits="userSpaceOnUse"
       gradientTransform="matrix(-1.7405015,-1.8094569e-6,1.6101335e-6,-1.5502579,151.61682,14.39113)"
       cx="53.5"
       cy="5.1382136"
       fx="53.5"
       fy="5.1382136"
       r="1.5" />
    <linearGradient
       inkscape:collect="always"
       xlink:href="#linearGradient2729"
       id="linearGradient3442"
       gradientUnits="userSpaceOnUse"
       gradientTransform="translate(-22.99814,1.0000002)"
       x1="69.998138"
       y1="2.204505"
       x2="88.981941"
       y2="47.987698" />
    <linearGradient
       inkscape:collect="always"
       xlink:href="#linearGradient2729"
       id="linearGradient2355"
       gradientUnits="userSpaceOnUse"
       gradientTransform="translate(-57.00186,-4.0000002e-8)"
       x1="69.998138"
       y1="2.204505"
       x2="88.981941"
       y2="47.987698" />
  </defs>
  <sodipodi:namedview
     id="namedview10679"
     pagecolor="#ffffff"
     bordercolor="#6e6e6e"
     borderopacity="1"
     inkscape:pageopacity="0.0"
     inkscape:pageshadow="2"
     inkscape:zoom="8"
     inkscape:cx="24"
     inkscape:cy="23.898891"
     inkscape:current-layer="layer1"
     showgrid="true"
     inkscape:grid-bbox="true"
     inkscape:document-units="px"
     inkscape:window-width="872"
     inkscape:window-height="968"
     inkscape:window-x="722"
     inkscape:window-y="87"
     inkscape:showpageshadow="true" />
  <metadata
     id="metadata3725">
    <rdf:RDF>
      <cc:Work
         rdf:about="">
        <dc:format>image/svg+xml</dc:format>
        <dc:type
           rdf:resource="http://purl.org/dc/dcmitype/StillImage" />
        <dc:title>HP iPAQ hx4700</dc:title>
        <dc:date>December 2007</dc:date>
        <dc:creator>
          <cc:Agent>
            <dc:title>Philipp Zabel</dc:title>
          </cc:Agent>
        </dc:creator>
        <dc:subject>
          <rdf:Bag>
            <rdf:li>device</rdf:li>
            <rdf:li>pda</rdf:li>
            <rdf:li>hx4700</rdf:li>
          </rdf:Bag>
        </dc:subject>
        <cc:license
           rdf:resource="http://creativecommons.org/licenses/GPL/2.0/" />
      </cc:Work>
      <cc:License
         rdf:about="http://creativecommons.org/licenses/GPL/2.0/">
        <cc:permits
           rdf:resource="http://web.resource.org/cc/Reproduction" />
        <cc:permits
           rdf:resource="http://web.resource.org/cc/Distribution" />
        <cc:requires
           rdf:resource="http://web.resource.org/cc/Notice" />
        <cc:permits
           rdf:resource="http://web.resource.org/cc/DerivativeWorks" />
        <cc:requires
           rdf:resource="http://web.resource.org/cc/ShareAlike" />
        <cc:requires
           rdf:resource="http://web.resource.org/cc/SourceCode" />
      </cc:License>
    </rdf:RDF>
  </metadata>
  <g
     id="layer1"
     inkscape:label="Layer 1"
     inkscape:groupmode="layer"
     style="display:inline">
    <path
       sodipodi:type="arc"
       style="opacity:0.5;color:#000000;fill:url(#radialGradient19284);fill-opacity:1;fill-rule:evenodd;stroke:none;stroke-width:4;stroke-linecap:butt;stroke-linejoin:miter;marker:none;marker-start:none;marker-mid:none;marker-end:none;stroke-miterlimit:4;stroke-dashoffset:0;stroke-opacity:1;visibility:visible;display:inline;overflow:visible"
       id="path19276"
       sodipodi:cx="23.864855"
       sodipodi:cy="34.918526"
       sodipodi:rx="22.804193"
       sodipodi:ry="12.374369"
       d="M 46.669048 34.918526 A 22.804193 12.374369 0 1 1  1.0606613,34.918526 A 22.804193 12.374369 0 1 1  46.669048 34.918526 z"
       transform="matrix(0.7112179,0,0,0.3080455,7.8081375,33.055374)" />
    <rect
       style="fill:#333036;fill-opacity:1;fill-rule:nonzero;stroke:none;stroke-width:1;stroke-linecap:butt;stroke-linejoin:miter;stroke-miterlimit:4;stroke-dasharray:none;stroke-dashoffset:0;stroke-opacity:1"
       id="bodycolor"
       width="24"
       height="42"
       x="12.5"
       y="2.5"
       rx="11"
       ry="1.6412427" />
    <path
       style="opacity:1;fill:#000000;fill-opacity:1;fill-rule:evenodd;stroke:none;stroke-width:0.25pt;stroke-linecap:butt;stroke-linejoin:miter;stroke-opacity:1"
       d="M 15,3 L 12.5,4 L 12.5,5 L 16,5 L 18,9 L 31,9 L 34,3 L 15,3 z "
       id="upperplastic"
       sodipodi:nodetypes="ccccccccc" />
    <path
       style="opacity:0.5;fill:url(#linearGradient3315);fill-opacity:1;fill-rule:evenodd;stroke:none;stroke-width:0.25pt;stroke-linecap:butt;stroke-linejoin:miter;stroke-opacity:0.6"
       d="M 23.5,3 C 20.473018,3 17.732629,3.1775967 15.78125,3.46875 C 14.805559,3.6143267 14.032227,3.7914382 13.53125,3.96875 C 13.28076,4.0574059 13.111778,4.159735 13.03125,4.21875 C 12.990984,4.2482575 12.997747,4.2591065 13,4.25 L 13,5 L 16,5 L 18,9 L 26.28125,9 C 25.582656,6.8758897 24.630556,4.8262586 23.6875,3 L 23.5,3 z "
       id="upperplasticreflection" />
    <rect
       y="11.5"
       x="15.5"
       height="24"
       width="18"
       id="screen"
       style="fill:#3465a4;fill-opacity:1;fill-rule:nonzero;stroke:#204a87;stroke-width:0.99999988;stroke-linecap:butt;stroke-linejoin:miter;stroke-miterlimit:4;stroke-dasharray:none;stroke-dashoffset:0;stroke-opacity:1" />
    <path
       sodipodi:nodetypes="ccccc"
       id="lowerplastic"
       d="M 14.5,44 L 17.5,38 L 31.5,38 L 34.5,44 L 14.5,44 z "
       style="opacity:1;fill:#000000;fill-opacity:1;fill-rule:evenodd;stroke:none;stroke-width:0.25pt;stroke-linecap:butt;stroke-linejoin:miter;stroke-opacity:1" />
    <path
       style="opacity:0.7;fill:url(#linearGradient3319);fill-opacity:1;fill-rule:evenodd;stroke:none;stroke-width:0.25pt;stroke-linecap:butt;stroke-linejoin:miter;stroke-opacity:0.6"
       d="M 17.5,38 L 14.8125,43.34375 C 15.114073,43.404527 15.420971,43.477495 15.78125,43.53125 C 17.042225,43.719392 18.653157,43.861473 20.4375,43.9375 C 19.875754,41.987237 19.561122,40.000689 19.5,38 L 17.5,38 z "
       id="lowerplasticreflection" />
    <path
       style="fill:#221f25;fill-opacity:1;fill-rule:evenodd;stroke:none;stroke-width:0.25pt;stroke-linecap:butt;stroke-linejoin:miter;stroke-opacity:1"
       d="M 12.5,5 L 12.5,43 L 13.142,43.5 L 15,37 L 14,36.5 L 14,10.5 L 15,10 L 13.5714,5 L 12.5,5 z "
       id="leftbody"
       sodipodi:nodetypes="ccccccccc" />
    <rect
       style="opacity:1;fill:url(#radialGradient3249);fill-opacity:1;stroke:none;stroke-width:2;stroke-linecap:butt;stroke-linejoin:round;stroke-miterlimit:4;stroke-dasharray:none;stroke-dashoffset:0;stroke-opacity:1"
       id="hplogo"
       width="5"
       height="3"
       x="22"
       y="5"
       ry="0.30000001"
       rx="0.33333334" />
    <path
       style="fill:#333036;fill-opacity:1;fill-rule:evenodd;stroke:none;stroke-width:0.25pt;stroke-linecap:butt;stroke-linejoin:miter;stroke-opacity:1"
       d="M 34,3 L 31,9 L 18,9 L 16,5 L 13.572,5 L 15,10 L 34,10 L 35.857,3.5 L 34,3 z "
       id="upperbody"
       sodipodi:nodetypes="cccccccccc" />
    <path
       id="rightbody"
       d="M 35.857,3.5 L 36.5,4 L 36.5,43 L 35.857,43.5 L 34,37 L 35,36.5 L 35,10.5 L 34,10 L 35.857,3.5 z "
       style="fill:#221f25;fill-opacity:1;fill-rule:evenodd;stroke:none;stroke-width:0.25pt;stroke-linecap:butt;stroke-linejoin:miter;stroke-opacity:1" />
    <path
       style="opacity:1;fill:#2e3436;fill-opacity:1;fill-rule:evenodd;stroke:none;stroke-width:0.25pt;stroke-linecap:butt;stroke-linejoin:miter;stroke-opacity:1"
       d="M 31,8 L 31.375,7.25 L 30.875,7.25 L 30.5,8 L 31,8 z "
       id="speaker"
       sodipodi:nodetypes="ccccc" />
    <path
       style="fill:#333036;fill-opacity:1;fill-rule:evenodd;stroke:none;stroke-width:0.25pt;stroke-linecap:butt;stroke-linejoin:miter;stroke-opacity:1"
       d="M 15,37 L 13.143,43.5 L 14.5,44 L 17.5,38 L 31.5,38 L 34.5,44 L 35.857,43.5 L 34,37 L 15,37 z "
       id="lowerbody" />
    <path
       style="opacity:1;fill:#2e3436;fill-opacity:1;fill-rule:evenodd;stroke:none;stroke-width:0.1;stroke-linecap:butt;stroke-linejoin:miter;stroke-miterlimit:4;stroke-dasharray:none;stroke-opacity:1"
       d="M 21,39 L 28,39 C 28.629767,39.009842 28.812174,39.023749 29,39.437103 L 29.84375,41.636206 C 30.439721,42.951663 29.010835,43.000207 27,43.000207 L 22,43.000207 C 19.989165,43.010049 18.747224,43.020555 19.1875,41.664043 L 20,39.437103 C 20.187825,39.03359 20.458621,39 21,39 z "
       id="navpoint"
       sodipodi:nodetypes="ccccccccc" />
    <rect
       style="opacity:1;fill:#555753;fill-opacity:1;stroke:none;stroke-width:0.1;stroke-linecap:butt;stroke-linejoin:round;stroke-miterlimit:4;stroke-dasharray:none;stroke-dashoffset:0;stroke-opacity:1"
       id="contacts"
       width="1"
       height="1"
       x="18"
       y="39" />
    <rect
       y="39"
       x="30"
       height="1"
       width="1"
       id="mail"
       style="opacity:1;fill:#555753;fill-opacity:1;stroke:none;stroke-width:0.1;stroke-linecap:butt;stroke-linejoin:round;stroke-miterlimit:4;stroke-dasharray:none;stroke-dashoffset:0;stroke-opacity:1" />
    <rect
       style="opacity:1;fill:#555753;fill-opacity:1;stroke:none;stroke-width:0.1;stroke-linecap:butt;stroke-linejoin:round;stroke-miterlimit:4;stroke-dasharray:none;stroke-dashoffset:0;stroke-opacity:1"
       id="calendar"
       width="1"
       height="1"
       x="17"
       y="41" />
    <rect
       y="41"
       x="31"
       height="1"
       width="1"
       id="itask"
       style="opacity:1;fill:#555753;fill-opacity:1;stroke:none;stroke-width:0.1;stroke-linecap:butt;stroke-linejoin:round;stroke-miterlimit:4;stroke-dasharray:none;stroke-dashoffset:0;stroke-opacity:1" />
    <rect
       ry="1.6412427"
       rx="11"
       y="2.5"
       x="12.5"
       height="42"
       width="24"
       id="frame"
       style="fill:none;fill-opacity:1;fill-rule:nonzero;stroke:#111012;stroke-width:1;stroke-linecap:butt;stroke-linejoin:miter;stroke-miterlimit:4;stroke-dasharray:none;stroke-dashoffset:0;stroke-opacity:1" />
    <path
       style="fill:#444047;fill-opacity:1;fill-rule:evenodd;stroke:none;stroke-width:0.25pt;stroke-linecap:butt;stroke-linejoin:miter;stroke-opacity:1"
       d="M 15,36 L 14,36.5 L 15,37 L 34,37 L 35,36.5 L 34,36 L 15,36 z "
       id="lowerbezel" />
    <path
       id="upperbezel"
       d="M 15,10 L 14,10.5 L 15,11 L 34,11 L 35,10.5 L 34,10 L 15,10 z "
       style="fill:#141116;fill-opacity:1;fill-rule:evenodd;stroke:none;stroke-width:0.25pt;stroke-linecap:butt;stroke-linejoin:miter;stroke-opacity:1" />
    <path
       style="fill:#000000;fill-opacity:1;fill-rule:evenodd;stroke:none;stroke-width:0.25pt;stroke-linecap:butt;stroke-linejoin:miter;stroke-opacity:1"
       d="M 34.443147,41.519531 L 34.155524,40.519531 L 34.681428,40.519531 L 35,41.519531 L 34.443147,41.519531 z "
       id="mic"
       sodipodi:nodetypes="ccccc" />
    <path
       sodipodi:nodetypes="ccccc"
       id="blueled"
       d="M 17,6 L 16.625,5.25 L 17.125,5.25 L 17.5,6 L 17,6 z "
       style="fill:#007ef3;fill-opacity:1;fill-rule:evenodd;stroke:none;stroke-width:0.25pt;stroke-linecap:butt;stroke-linejoin:miter;stroke-opacity:1" />
    <path
       style="fill:#ffb808;fill-opacity:1;fill-rule:evenodd;stroke:none;stroke-width:0.25pt;stroke-linecap:butt;stroke-linejoin:miter;stroke-opacity:1"
       d="M 17.5,7 L 17.125,6.25 L 17.625,6.25 L 18,7 L 17.5,7 z "
       id="redgreenled"
       sodipodi:nodetypes="ccccc" />
    <path
       sodipodi:nodetypes="ccccc"
       id="lightsensor"
       d="M 18,8 L 17.625,7.25 L 18.125,7.25 L 18.5,8 L 18,8 z "
       style="fill:#2e3436;fill-opacity:1;fill-rule:evenodd;stroke:none;stroke-width:0.25pt;stroke-linecap:butt;stroke-linejoin:miter;stroke-opacity:1" />
    <path
       style="fill:#333036;fill-opacity:1;fill-rule:evenodd;stroke:none;stroke-width:0.25pt;stroke-linecap:butt;stroke-linejoin:miter;stroke-opacity:1"
       d="M 34,11 L 35,10.5 L 35,36.5 L 34,36 L 34,11 z "
       id="rightbezel" />
    <path
       id="leftbezel"
       d="M 15,11 L 14,10.5 L 14,36.5 L 15,36 L 15,11 z "
       style="fill:#333036;fill-opacity:1;fill-rule:evenodd;stroke:none;stroke-width:0.25pt;stroke-linecap:butt;stroke-linejoin:miter;stroke-opacity:1" />
    <path
       sodipodi:type="arc"
       style="opacity:1;fill:#2e3436;fill-opacity:1;stroke:none;stroke-width:1;stroke-linecap:butt;stroke-linejoin:miter;stroke-miterlimit:4;stroke-dasharray:none;stroke-dashoffset:0;stroke-opacity:0.6"
       id="hplogo1"
       sodipodi:cx="83.03125"
       sodipodi:cy="3.8437498"
       sodipodi:rx="0.90625"
       sodipodi:ry="0.90625"
       d="M 83.9375 3.8437498 A 0.90625 0.90625 0 1 1  82.125,3.8437498 A 0.90625 0.90625 0 1 1  83.9375 3.8437498 z"
       transform="matrix(1.1842849,0,0,1.2204636,-73.815751,1.8902985)" />
    <rect
       style="opacity:1;fill:#888a85;fill-opacity:1;stroke:none;stroke-width:0.1;stroke-linecap:butt;stroke-linejoin:round;stroke-miterlimit:4;stroke-dasharray:none;stroke-dashoffset:0;stroke-opacity:1"
       id="wirelesssymbol"
       width="1"
       height="1"
       x="18"
       y="5" />
    <path
       sodipodi:nodetypes="ccccc"
       id="path3333"
       d="M 31.5,7 L 31.875,6.25 L 31.375,6.25 L 31,7 L 31.5,7 z "
       style="opacity:1;fill:#2e3436;fill-opacity:1;fill-rule:evenodd;stroke:none;stroke-width:0.25pt;stroke-linecap:butt;stroke-linejoin:miter;stroke-opacity:1" />
    <path
       style="opacity:1;fill:#2e3436;fill-opacity:1;fill-rule:evenodd;stroke:none;stroke-width:0.25pt;stroke-linecap:butt;stroke-linejoin:miter;stroke-opacity:1"
       d="M 32,6 L 32.375,5.25 L 31.875,5.25 L 31.5,6 L 32,6 z "
       id="path3335"
       sodipodi:nodetypes="ccccc" />
    <path
       sodipodi:nodetypes="ccccc"
       id="path3337"
       d="M 29.5,8 L 29.875,7.25 L 29.375,7.25 L 29,8 L 29.5,8 z "
       style="opacity:1;fill:#2e3436;fill-opacity:1;fill-rule:evenodd;stroke:none;stroke-width:0.25pt;stroke-linecap:butt;stroke-linejoin:miter;stroke-opacity:1" />
    <path
       style="opacity:1;fill:#2e3436;fill-opacity:1;fill-rule:evenodd;stroke:none;stroke-width:0.25pt;stroke-linecap:butt;stroke-linejoin:miter;stroke-opacity:1"
       d="M 30,7 L 30.375,6.25 L 29.875,6.25 L 29.5,7 L 30,7 z "
       id="path3339"
       sodipodi:nodetypes="ccccc" />
    <path
       sodipodi:nodetypes="ccccc"
       id="path3341"
       d="M 30.5,6 L 30.875,5.25 L 30.375,5.25 L 30,6 L 30.5,6 z "
       style="opacity:1;fill:#2e3436;fill-opacity:1;fill-rule:evenodd;stroke:none;stroke-width:0.25pt;stroke-linecap:butt;stroke-linejoin:miter;stroke-opacity:1" />
    <path
       style="opacity:1;fill:#2e3436;fill-opacity:1;fill-rule:evenodd;stroke:none;stroke-width:0.25pt;stroke-linecap:butt;stroke-linejoin:miter;stroke-opacity:1"
       d="M 30.25,8 L 30.6,7.25 L 30.125,7.25 L 29.75,8 L 30.25,8 z "
       id="path3343"
       sodipodi:nodetypes="ccccc" />
    <path
       sodipodi:nodetypes="ccccc"
       id="path3345"
       d="M 30.75,7 L 31.125,6.25 L 30.6,6.25 L 30.25,7 L 30.75,7 z "
       style="opacity:1;fill:#2e3436;fill-opacity:1;fill-rule:evenodd;stroke:none;stroke-width:0.25pt;stroke-linecap:butt;stroke-linejoin:miter;stroke-opacity:1" />
    <path
       style="opacity:1;fill:#2e3436;fill-opacity:1;fill-rule:evenodd;stroke:none;stroke-width:0.25pt;stroke-linecap:butt;stroke-linejoin:miter;stroke-opacity:1"
       d="M 31.25,6 L 31.6,5.25 L 31.125,5.25 L 30.75,6 L 31.25,6 z "
       id="path3347"
       sodipodi:nodetypes="ccccc" />
    <path
       sodipodi:nodetypes="ccccc"
       id="path2285"
       d="M 17.5,7 L 17.125,6.25 L 17.625,6.25 L 18,7 L 17.5,7 z "
       style="fill:#ffffff;fill-opacity:1;fill-rule:evenodd;stroke:#ffb808;stroke-width:0.25pt;stroke-linecap:butt;stroke-linejoin:miter;stroke-opacity:1" />
    <path
       style="color:#000000;fill:#eeeeec;fill-opacity:0.16993462;fill-rule:evenodd;stroke:none;stroke-width:0.99999994;stroke-linecap:round;stroke-linejoin:miter;marker:none;marker-start:none;marker-mid:none;marker-end:none;stroke-miterlimit:4;stroke-dashoffset:0;stroke-opacity:1;visibility:visible;display:inline;overflow:visible"
       d="M 16,12 L 32.979002,12 C 32.979002,12 32.979746,15.435731 33,17.259146 C 32.06593,19.296259 29.242726,20.148451 25.821578,19.397811 C 19.054333,17.912999 16,25 16,25 L 16,12 z "
       id="rect3198"
       sodipodi:nodetypes="ccczcc" />
    <path
       style="opacity:0.4;fill:url(#linearGradient2355);fill-opacity:1;fill-rule:nonzero;stroke:none;stroke-width:1;stroke-linecap:butt;stroke-linejoin:miter;stroke-miterlimit:4;stroke-dasharray:none;stroke-dashoffset:0;stroke-opacity:1;display:inline"
       d="M 23.49814,3 C 20.47116,3 17.730769,3.1775967 15.77939,3.46875 C 14.803701,3.6143267 14.030367,3.7914382 13.52939,3.96875 C 13.278902,4.0574059 13.109918,4.159735 13.02939,4.21875 C 12.989126,4.2482575 12.995887,4.2591065 12.99814,4.25 L 12.99814,42.75 C 12.995887,42.740893 12.989126,42.751742 13.02939,42.78125 C 13.109918,42.840265 13.278902,42.942594 13.52939,43.03125 C 14.030367,43.208562 14.803701,43.385673 15.77939,43.53125 C 17.730769,43.822403 20.47116,44 23.49814,44 L 25.49814,44 C 28.52512,44 31.265511,43.822403 33.21689,43.53125 C 34.192579,43.385673 34.965913,43.208562 35.46689,43.03125 C 35.717378,42.942594 35.886362,42.840265 35.96689,42.78125 C 36.007154,42.751742 36.000393,42.740893 35.99814,42.75 L 35.99814,4.25 C 36.000393,4.2591065 36.007154,4.2482575 35.96689,4.21875 C 35.886362,4.159735 35.717378,4.0574059 35.46689,3.96875 C 34.965913,3.7914382 34.192579,3.6143267 33.21689,3.46875 C 31.265511,3.1775967 28.52512,3 25.49814,3 L 23.49814,3 z M 23.49814,4 L 25.49814,4 C 28.251258,4 30.722029,4.1515249 32.49814,4.375 C 33.386196,4.4867376 34.103937,4.6136886 34.56064,4.75 C 34.775868,4.8142387 34.923699,4.8947158 34.99814,4.9375 L 34.99814,42.0625 C 34.923699,42.105284 34.775868,42.185761 34.56064,42.25 C 34.103937,42.386312 33.386196,42.513262 32.49814,42.625 C 30.722029,42.848475 28.251258,43 25.49814,43 L 23.49814,43 C 20.745022,43 18.274251,42.848475 16.49814,42.625 C 15.610084,42.513262 14.892343,42.386311 14.43564,42.25 C 14.220412,42.185761 14.072581,42.105284 13.99814,42.0625 L 13.99814,4.9375 C 14.072581,4.8947158 14.220412,4.8142387 14.43564,4.75 C 14.892343,4.6136886 15.610084,4.4867376 16.49814,4.375 C 18.274251,4.1515249 20.745022,4 23.49814,4 z "
       id="tangohighlight" />
  </g>
</svg>
