<?xml version="1.0" encoding="UTF-8"?>
<svg xmlns="http://www.w3.org/2000/svg" xmlns:xlink="http://www.w3.org/1999/xlink" width="48" height="48">
  <defs>
    <linearGradient id="e">
      <stop offset="0"/>
      <stop offset="1" stop-opacity="0"/>
    </linearGradient>
    <linearGradient id="a">
      <stop offset="0" stop-opacity="0"/>
      <stop offset=".5"/>
      <stop offset="1" stop-opacity="0"/>
    </linearGradient>
    <linearGradient xlink:href="#a" id="l" x1="302.857" x2="302.857" y1="366.648" y2="609.505" gradientTransform="matrix(2.77439 0 0 1.9697 -1892.179 -872.885)" gradientUnits="userSpaceOnUse"/>
    <linearGradient id="d">
      <stop offset="0" stop-color="#7c7e79"/>
      <stop offset=".172" stop-color="#848681"/>
      <stop offset="1" stop-color="#898c86"/>
    </linearGradient>
    <linearGradient id="k">
      <stop offset="0" stop-color="#575757"/>
      <stop offset="1" stop-color="#575757" stop-opacity="0"/>
    </linearGradient>
    <linearGradient id="j">
      <stop offset="0" stop-color="#fff"/>
      <stop offset="1" stop-color="#fff" stop-opacity="0"/>
    </linearGradient>
    <linearGradient id="i">
      <stop offset="0"/>
      <stop offset="1" stop-opacity="0"/>
    </linearGradient>
    <linearGradient id="c">
      <stop offset="0" stop-opacity=".186"/>
      <stop offset="1" stop-color="#fff"/>
    </linearGradient>
    <linearGradient id="h">
      <stop offset="0"/>
      <stop offset="1" stop-opacity="0"/>
    </linearGradient>
    <linearGradient id="g">
      <stop offset="0" stop-color="#edd400"/>
      <stop offset="1" stop-color="#980"/>
    </linearGradient>
    <linearGradient id="f">
      <stop offset="0" stop-color="#fff"/>
      <stop offset="1" stop-color="#fff" stop-opacity="0"/>
    </linearGradient>
    <linearGradient id="b" x1="80.224" x2="48.046" y1="117.52" y2="59.8" gradientTransform="translate(4.128 3.743) scale(.31468)" gradientUnits="userSpaceOnUse">
      <stop offset="0" stop-color="#ccc"/>
      <stop offset=".983" stop-color="#fff"/>
    </linearGradient>
    <linearGradient xlink:href="#b" id="o" x1="52.006" x2="14.049" y1="166.133" y2="-42.219" gradientTransform="matrix(.33692 0 0 .16689 17.983 15.462)" gradientUnits="userSpaceOnUse"/>
    <linearGradient id="u" x1="64.388" x2="64.388" y1="65.124" y2="35.569" gradientTransform="translate(1.639 -.084) scale(.3541)" gradientUnits="userSpaceOnUse">
      <stop offset="0" stop-color="#fff"/>
      <stop offset=".854" stop-color="#ff6200"/>
      <stop offset="1" stop-color="#f25d00"/>
    </linearGradient>
    <linearGradient xlink:href="#c" id="p" x1="17.603" x2="17.683" y1="26.057" y2="32.654" gradientTransform="matrix(.89879 0 0 1.07191 .478 -2.08)" gradientUnits="userSpaceOnUse"/>
    <linearGradient xlink:href="#d" id="r" x1="17.85" x2="19.04" y1="28.939" y2="41.032" gradientTransform="matrix(.88879 0 0 1.08932 2.411 -1.524)" gradientUnits="userSpaceOnUse"/>
    <radialGradient xlink:href="#e" id="n" cx="605.714" cy="486.648" r="117.143" fx="605.714" fy="486.648" gradientTransform="matrix(-2.77439 0 0 1.9697 112.762 -872.885)" gradientUnits="userSpaceOnUse"/>
    <radialGradient xlink:href="#e" id="m" cx="605.714" cy="486.648" r="117.143" fx="605.714" fy="486.648" gradientTransform="matrix(2.77439 0 0 1.9697 -1891.633 -872.885)" gradientUnits="userSpaceOnUse"/>
    <radialGradient xlink:href="#f" id="v" cx="7.533" cy="24.203" r="8.245" fx="7.533" fy="24.203" gradientTransform="matrix(4.10009 0 0 4.20132 -25.415 -78.54)" gradientUnits="userSpaceOnUse"/>
    <radialGradient xlink:href="#g" id="t" cx="19.986" cy="36.778" r="1.082" fx="19.986" fy="36.778" gradientTransform="matrix(1.12526 0 0 .98274 -3.429 .566)" gradientUnits="userSpaceOnUse"/>
    <radialGradient xlink:href="#h" id="s" cx="20.444" cy="37.426" r="1.082" fx="20.444" fy="37.426" gradientTransform="matrix(1.12526 0 0 .98274 -3.429 .731)" gradientUnits="userSpaceOnUse"/>
    <radialGradient xlink:href="#i" id="w" cx="11.681" cy="19.554" r="8.245" fx="11.681" fy="19.554" gradientTransform="matrix(4.10009 0 0 -4.20132 -5.198 105.353)" gradientUnits="userSpaceOnUse"/>
    <radialGradient xlink:href="#j" id="x" cx="29.913" cy="30.443" r="4.002" fx="29.913" fy="30.443" gradientTransform="matrix(3.7515 0 0 3.14782 -82.01 -65.707)" gradientUnits="userSpaceOnUse"/>
    <radialGradient xlink:href="#k" id="q" cx="24.195" cy="10.578" r="15.243" fx="24.195" fy="10.578" gradientTransform="matrix(1.12526 0 0 1.34006 -3.007 1.355)" gradientUnits="userSpaceOnUse"/>
  </defs>
  <g color="#000">
    <path fill="url(#l)" d="M-1559.252-150.697h1339.633V327.66h-1339.633z" opacity=".402" style="marker:none" transform="matrix(.02158 0 0 .0186 43.123 41.638)"/>
    <path fill="url(#m)" d="M-219.61876-150.68038v478.33079c142.874166.90045 345.40022-107.16966 345.40014-239.196175 0-132.026537-159.436816-239.134595-345.40014-239.134615z" opacity=".402" style="marker:none" transform="matrix(.02158 0 0 .0186 43.123 41.638)"/>
    <path fill="url(#n)" d="M-1559.2523-150.68038v478.33079c-142.8742.90045-345.4002-107.16966-345.4002-239.196175 0-132.026537 159.4368-239.134595 345.4002-239.134615z" opacity=".402" style="marker:none" transform="matrix(.02158 0 0 .0186 43.123 41.638)"/>
  </g>
  <path fill="url(#o)" stroke="#757575" d="M21.619576 8.1833733h5.957459c.839732 0 13.886475 15.4353277 13.886475 16.3406587l-.443521 18.496745c0 .905333-.67603 1.634177-1.515762 1.634177H8.0469496c-.8397329 0-1.5157625-.728844-1.5157625-1.634177l.056478-18.496745c0-.905331 14.1921789-16.3406587 15.0319109-16.3406587z" color="#000" style="marker:none"/>
  <path fill="none" d="M46.963575 45.735573H1.6386762V.41067554H46.963575V45.735573z"/>
  <path fill="url(#p)" fill-rule="evenodd" d="m23 29-.045744 15.090942H11.111465L11 29h12z" clip-rule="evenodd"/>
  <path fill="none" stroke="#fff" d="M21.780459 9.405584h5.559097c.783582 0 13.000869 14.399588 13.000869 15.244172l-.347158 18.212311c0 .459259-.143737.653465-.512375.653465l-31.3872026.01428c-.3686377 0-.5839636-.079918-.5839636-.45355l.2153418-18.426506c0-.844584 13.2718124-15.244172 14.0553914-15.244172z" color="#000" opacity=".313" style="marker:none"/>
  <path fill="url(#q)" fill-rule="evenodd" d="m7.2075295 27.943053-.0542567 2.595194L25.521437 17.358993l15.286395 11.154428.07131-.311714-16.370456-15.904131L7.2075295 27.943053z" clip-rule="evenodd" opacity=".2"/>
  <path fill="url(#r)" fill-rule="evenodd" d="M22 30v14.090942h-9.811029L12 30h10z" clip-rule="evenodd"/>
  <path fill="url(#s)" fill-rule="evenodd" d="M19.576856 36.44767c.67279 0 1.216616.474605 1.216616 1.058507 0 .589811-.543826 1.068355-1.216616 1.068355-.672272 0-1.218686-.478544-1.218686-1.068355.000515-.583902.546414-1.058507 1.218686-1.058507z" clip-rule="evenodd" opacity=".409"/>
  <path fill="url(#t)" fill-rule="evenodd" d="M19.462314 35.932229c.672789 0 1.216615.474605 1.216615 1.058507 0 .589809-.543826 1.068353-1.216615 1.068353-.672273 0-1.218687-.478544-1.218687-1.068353.000515-.583902.546414-1.058507 1.218687-1.058507z" clip-rule="evenodd"/>
  <path fill="url(#u)" d="m24.447748 11.559337 18.92706 17.169868.494679.391991.403676-.171385-.37287-.761673-.277614-.223436-19.174931-15.572306L5.0582327 28.135731l-.2376018.14412-.2167099.706786.4334198.129248.384554-.308423L24.447748 11.559337z"/>
  <path fill="#ef2929" stroke="#a40000" d="M24.330168 2.2713382 2.4484294 20.372675l-.6247289 7.165928 1.9999362 2.064323S24.231018 12.445641 24.44773 12.274963l19.63254 17.54326 1.898424-2.323997-1.615791-7.111374L24.44773 2.1668788l-.117562.1044594z"/>
  <path fill="url(#v)" d="m2.8413446 20.613129-.2915552 6.623365L24.369219 8.980075l-.070328-5.8933307L2.8413446 20.613129z" color="#000" opacity=".409" style="marker:none"/>
  <path fill="url(#w)" d="m24.483763 8.7509884.09946-5.8411017L43.912186 20.56184l1.491812 6.500812L24.483763 8.7509884z" color="#000" opacity=".136" style="marker:none"/>
  <path fill="none" stroke="#fff" d="M27.102228 27.719824h9.039995c.770595 0 1.390967.62037 1.390967 1.390967l-.007961 9.079221c0 .770596-.596322 1.265969-1.366918 1.265969h-9.056083c-.770597 0-1.390967-.620373-1.390967-1.390969v-8.954221c0-.770597.62037-1.390967 1.390967-1.390967z" color="#000" opacity=".318" style="marker:none"/>
  <rect width="10.001" height="9.962" x="26.508" y="28.514" fill="#3465a4" stroke="#757575" color="#000" rx=".381" ry=".381" style="marker:none"/>
  <path fill="url(#x)" d="M27.107118 34.408261c3.617983.331177 5.527724-1.445704 8.868152-1.55274L36 29.00603 27.088388 29l.01873 5.408261z" color="#000" opacity=".398" style="marker:none"/>
</svg>