<?xml version="1.0" encoding="UTF-8" standalone="no"?>
<!-- Created with Inkscape (http://www.inkscape.org/) -->

<svg
   width="13"
   height="12"
   viewBox="0 0 3.4395834 3.175"
   version="1.1"
   id="svg5"
   inkscape:version="1.1.1 (3bf5ae0d25, 2021-09-20)"
   sodipodi:docname="apple.svg"
   xmlns:inkscape="http://www.inkscape.org/namespaces/inkscape"
   xmlns:sodipodi="http://sodipodi.sourceforge.net/DTD/sodipodi-0.dtd"
   xmlns="http://www.w3.org/2000/svg"
   xmlns:svg="http://www.w3.org/2000/svg">
  <sodipodi:namedview
     id="namedview7"
     pagecolor="#ffffff"
     bordercolor="#666666"
     borderopacity="1.0"
     inkscape:pageshadow="2"
     inkscape:pageopacity="0.0"
     inkscape:pagecheckerboard="true"
     inkscape:document-units="cm"
     showgrid="false"
     units="px"
     height="41.5748px"
     inkscape:zoom="81.919999"
     inkscape:cx="5.6640626"
     inkscape:cy="6.9396973"
     inkscape:window-width="1920"
     inkscape:window-height="1009"
     inkscape:window-x="-8"
     inkscape:window-y="-8"
     inkscape:window-maximized="1"
     inkscape:current-layer="layer1"
     showguides="false"
     inkscape:lockguides="false" />
  <defs
     id="defs2" />
  <g
     inkscape:label="Слой 1"
     inkscape:groupmode="layer"
     id="layer1"
     style="display:inline">
    <path
       style="fill:#b1bfcd;fill-opacity:1;stroke:#b1bfcd;stroke-width:0.1;stroke-linecap:butt;stroke-linejoin:miter;stroke-miterlimit:4;stroke-dasharray:none;stroke-opacity:1"
       d="M 1.3291067,1.0352556 C 1.3580953,1.0451798 1.8687503,0.76443557 1.8105126,0.53722663 1.7522756,0.3100176 1.621695,0.40133587 1.621695,0.40133587 c 0,0 -0.3093879,0.23521626 -0.2925883,0.63391973 z"
       id="path1945" />
    <path
       style="fill:#b1bfcd;fill-opacity:1;stroke:#b1bfcd;stroke-width:0.065;stroke-linecap:butt;stroke-linejoin:miter;stroke-miterlimit:4;stroke-dasharray:none;stroke-opacity:1"
       d="m 0.97396656,1.1195755 0.14048714,0.072757 0.1644335,0.022838 0.1827037,0.00914 0.1827038,-0.031973 0.1781362,-0.063946 0.1827038,-0.044014 0.1539604,0.00724 0.1020544,0.08088 0.075528,0.1039464 c 0.02427,0.054119 0.024692,0.093929 0.00591,0.1222167 l -0.058271,0.1012706 -0.080879,0.1134062 -0.078987,0.1141899 -0.04623,0.1362441 -0.013703,0.1233251 0.036541,0.095919 0.086784,0.1324602 0.1004871,0.1552982 0.045676,0.1278927 0.00914,0.1370278 -0.027406,0.1096223 c -0.025883,0.083323 -0.051766,0.1129373 -0.077649,0.1278926 L 2.1193331,2.9371552 1.9137914,2.9736962 1.7407683,2.9672366 1.6206731,2.894153 C 1.5765696,2.8621799 1.5404585,2.797909 1.4623746,2.7659359 c -0.054811,-0.010658 0.00847,-0.0084 -0.1289059,-0.019054 -0.066681,0.00329 -0.2291582,0.018753 -0.1634201,0.036865 0.231283,-0.096394 0.1105141,-0.1101151 -0.088906,0.067176 L 0.96261481,2.9312482 0.85299253,2.9699104 0.67241023,2.9758156 0.5206664,2.9417212 0.32559765,2.7923281 C 0.23756462,2.6934606 0.21200587,2.5973369 0.19258326,2.5215023 0.1637006,2.380765 0.16615923,2.3389987 0.14723193,2.2447711 0.13735317,2.1712436 0.13163511,2.0912566 0.12817787,2.0112696 l -0.002446,-0.1808118 c 0.0108463,-0.054849 -0.0112231,0.00221 0.0378786,-0.1827038 0.0192686,-0.047555 -0.0187052,0.00665 0.0692976,-0.1630956 0.0217224,-0.036948 0.0259959,-0.056447 0.0959195,-0.1415955 0.0378682,-0.031385 0.008225,-0.021224 0.14616303,-0.1141898 0.10598978,-0.062222 0.12681384,-0.063611 0.17813618,-0.086784 0.12977684,-0.03018 0.13969562,-0.030395 0.17112248,-0.035987 0.17440878,0.00449 0.1016276,0.00898 0.14971744,0.013473 z"
       id="path8625"
       sodipodi:nodetypes="ccccccccccccccccccccccccccccccccccccccccccccccc" />
  </g>
</svg>
