<?xml version="1.0" encoding="UTF-8" standalone="no"?>
<svg width="11" height="11" viewBox="0 0 2.9104165 2.9104168" version="1.1" xmlns="http://www.w3.org/2000/svg">
<g style="fill:#a2b3c6;fill-opacity:1;stroke:none;stroke-width:0.264583px;stroke-linecap:butt;stroke-linejoin:miter;stroke-opacity:1">
<path d="M 4.9999992e-8,2.9104166 C 4.9999992e-8,2.38125 0.64905598,1.9719727 0.64905598,1.9719727 c 0,0 0.14469401,0.2025716 0.34726562,0.2067057 0.2025716,0.00413 0.4175456,-0.1984375 0.4175456,-0.1984375 0,0 0.1653646,0.024805 0.3224609,0.1405599 0.1570964,0.1157552 0.1777669,0.1901693 0.3100586,0.1901693 0.1322917,0 0.3927409,-0.2025717 0.3927409,-0.2025717 0,0 0.1240234,0.020671 0.2687174,0.1694987 0.144694,0.1488282 0.2025716,0.6325195 0.2025716,0.6325195 z"/>
<path d="m 1.0541992,0.7069337 c 0,0 0.4588867,0.049609 0.4630208,0.504362 0.00413,0.4547525 -0.2976562,0.835091 -0.4630208,0.835091 -0.16536458,0 -0.52503254,-0.3431315 -0.52503254,-0.835091 0,-0.4919597 0.52503254,-0.504362 0.52503254,-0.504362 z"/>
<path d="m 2.1042643,1.0666017 c 0,0 0.3927409,0.049609 0.396875,0.3844725 0.00413,0.3348633 -0.1694987,0.6986654 -0.3803385,0.6986654 -0.2108399,0 -0.4382162,-0.3720703 -0.4382162,-0.6779948 0,-0.3720702 0.4216797,-0.4051431 0.4216797,-0.4051431 z"/>
</g>
</svg>
