<?xml version="1.0" encoding="UTF-8" standalone="no"?>
<!-- Created with Inkscape (http://www.inkscape.org/) -->

<svg
   width="27.906cm"
   height="1.587cm"
   viewBox="0 0 279.06 15.87"
   version="1.1"
   id="svg1"
   inkscape:version="1.4.2 (ebf0e940d0, 2025-05-08)"
   sodipodi:docname="header.svg"
   xmlns:inkscape="http://www.inkscape.org/namespaces/inkscape"
   xmlns:sodipodi="http://sodipodi.sourceforge.net/DTD/sodipodi-0.dtd"
   xmlns:xlink="http://www.w3.org/1999/xlink"
   xmlns="http://www.w3.org/2000/svg"
   xmlns:svg="http://www.w3.org/2000/svg">
  <sodipodi:namedview
     id="namedview1"
     pagecolor="#ffffff"
     bordercolor="#000000"
     borderopacity="0.25"
     inkscape:showpageshadow="2"
     inkscape:pageopacity="0.0"
     inkscape:pagecheckerboard="0"
     inkscape:deskcolor="#d1d1d1"
     inkscape:document-units="mm"
     inkscape:zoom="1.4142136"
     inkscape:cx="1116.168"
     inkscape:cy="104.29825"
     inkscape:window-width="2048"
     inkscape:window-height="1044"
     inkscape:window-x="0"
     inkscape:window-y="0"
     inkscape:window-maximized="1"
     inkscape:current-layer="layer1" />
  <defs
     id="defs1">
    <linearGradient
       id="swatch10"
       inkscape:swatch="solid">
      <stop
         style="stop-color:#000000;stop-opacity:1;"
         offset="0"
         id="stop10" />
    </linearGradient>
    <inkscape:path-effect
       effect="fillet_chamfer"
       id="path-effect2"
       is_visible="true"
       lpeversion="1"
       nodesatellites_param="F,0,0,1,0,0,0,1 @ F,0,0,1,0,0,0,1 @ F,0,1,1,0,12.712295,0,1 @ F,0,0,1,0,12.712295,0,1"
       radius="0"
       unit="px"
       method="auto"
       mode="F"
       chamfer_steps="1"
       flexible="false"
       use_knot_distance="true"
       apply_no_radius="true"
       apply_with_radius="true"
       only_selected="false"
       hide_knots="false" />
    <linearGradient
       inkscape:collect="always"
       xlink:href="#linearGradient28"
       id="linearGradient29"
       x1="525.49231"
       y1="0.032960102"
       x2="525.49231"
       y2="53.867008"
       gradientUnits="userSpaceOnUse" />
    <linearGradient
       id="linearGradient28"
       inkscape:collect="always">
      <stop
         style="stop-color:#3c3c3c;stop-opacity:1"
         offset="0"
         id="stop28" />
      <stop
         style="stop-color:#7a7a7a;stop-opacity:1;"
         offset="1"
         id="stop29" />
    </linearGradient>
    <inkscape:path-effect
       effect="fillet_chamfer"
       id="path-effect28"
       is_visible="true"
       lpeversion="1"
       nodesatellites_param="F,0,0,1,0,0,0,1 @ F,0,0,1,0,0,0,1 @ F,0,1,1,0,12.712295,0,1 @ F,0,0,1,0,12.712295,0,1"
       radius="0"
       unit="px"
       method="auto"
       mode="F"
       chamfer_steps="1"
       flexible="false"
       use_knot_distance="true"
       apply_no_radius="true"
       apply_with_radius="true"
       only_selected="false"
       hide_knots="false" />
    <inkscape:path-effect
       effect="fillet_chamfer"
       id="path-effect30"
       is_visible="true"
       lpeversion="1"
       nodesatellites_param="F,0,0,1,0,0,0,1 @ F,0,0,1,0,0,0,1 @ F,0,1,1,0,12.712295,0,1 @ F,0,0,1,0,12.712295,0,1"
       radius="0"
       unit="px"
       method="auto"
       mode="F"
       chamfer_steps="1"
       flexible="false"
       use_knot_distance="true"
       apply_no_radius="true"
       apply_with_radius="true"
       only_selected="false"
       hide_knots="false" />
    <inkscape:path-effect
       effect="fillet_chamfer"
       id="path-effect7-0"
       is_visible="true"
       lpeversion="1"
       nodesatellites_param="F,0,0,1,0,0,0,1 @ F,0,0,1,0,0,0,1 @ F,0,1,1,0,12.712295,0,1 @ F,0,0,1,0,12.712295,0,1"
       radius="0"
       unit="px"
       method="auto"
       mode="F"
       chamfer_steps="1"
       flexible="false"
       use_knot_distance="true"
       apply_no_radius="true"
       apply_with_radius="true"
       only_selected="false"
       hide_knots="false" />
    <filter
       inkscape:collect="always"
       style="color-interpolation-filters:sRGB"
       id="filter4"
       x="-0.006084879"
       y="-0.024009626"
       width="1.0121698"
       height="1.0480193">
      <feGaussianBlur
         inkscape:collect="always"
         stdDeviation="0.30857158"
         id="feGaussianBlur4" />
    </filter>
    <linearGradient
       inkscape:collect="always"
       xlink:href="#linearGradient2"
       id="linearGradient3"
       x1="70.447495"
       y1="13.650469"
       x2="70.447495"
       y2="43.876106"
       gradientUnits="userSpaceOnUse" />
    <linearGradient
       id="linearGradient2"
       inkscape:collect="always">
      <stop
         style="stop-color:#ffffff;stop-opacity:1;"
         offset="0"
         id="stop2" />
      <stop
         style="stop-color:#f0eff0;stop-opacity:1;"
         offset="0.48918533"
         id="stop4" />
      <stop
         style="stop-color:#cecacd;stop-opacity:1;"
         offset="1"
         id="stop3" />
    </linearGradient>
    <filter
       inkscape:collect="always"
       style="color-interpolation-filters:sRGB"
       id="filter11"
       x="-0.00072331559"
       y="-0.0048819498"
       width="1.0014466"
       height="1.0188252">
      <feGaussianBlur
         inkscape:collect="always"
         stdDeviation="0.1112908"
         id="feGaussianBlur11" />
    </filter>
  </defs>
  <g
     inkscape:label="Layer 1"
     inkscape:groupmode="layer"
     id="layer1"
     transform="translate(-29.972808,-36.208395)">
    <g
       id="g30"
       inkscape:label="vector_head"
       style="display:inline"
       transform="matrix(0.26458333,0,0,0.26458333,29.973806,36.208993)">
      <path
         id="path27"
         style="display:inline;fill:url(#linearGradient29);stroke:none;stroke-width:6.663;stroke-dasharray:none;stroke-opacity:1"
         d="M 0.00152356,0 H 1054.6669 v 43.994351 a 12.712295,12.712295 135 0 1 -12.7123,12.712295 l -1029.240781,0 A 12.712295,12.712295 45 0 1 0.00152356,43.994351 Z"
         sodipodi:nodetypes="ccccc"
         inkscape:label="header"
         inkscape:original-d="M 0.00152356,0 H 1054.6669 v 56.706646 c -351.55513,0 -703.11025,0 -1054.66537644,0 z"
         inkscape:path-effect="#path-effect28" />
      <path
         id="path1"
         style="display:inline;mix-blend-mode:normal;fill:none;fill-opacity:1;stroke:#d1d1d1;stroke-width:0.991516;stroke-dasharray:none;stroke-opacity:1;filter:url(#filter11)"
         d="M 1054.6669,1.9953271 V 43.994351 c 0,7.020809 -5.6915,12.712298 -12.7123,12.712295 H 12.713819 c -7.0208068,0 -12.71229544,-5.691488 -12.71229544,-12.712295 V 1.9953271"
         sodipodi:nodetypes="ccccsc"
         inkscape:label="edging_white"
         transform="matrix(0.99631167,0,0,0.99016938,1.9449835,-1.9710937)" />
      <path
         style="display:inline;mix-blend-mode:normal;fill:#000000;fill-opacity:1;stroke-width:0.045;stroke-dasharray:none;filter:url(#filter4)"
         d="M 52.589723,34.675884 V 24.356738 h 2.050309 2.050308 v 1.26173 c 0,1.227371 0.002,1.261731 0.08922,1.261731 0.05975,0 0.121277,-0.06336 0.186171,-0.191514 0.532932,-1.052536 1.427997,-1.872839 2.422731,-2.220384 0.614223,-0.214591 0.963851,-0.267772 1.762999,-0.268156 0.54798,-2.27e-4 0.844254,0.02108 1.126543,0.08129 2.767671,0.590003 4.521565,2.879759 4.869785,6.357599 0.06921,0.69137 0.02967,2.451452 -0.0689,3.068019 -0.526383,3.290789 -2.303958,5.367515 -4.976908,5.814463 -0.665588,0.111294 -1.70758,0.07425 -2.304593,-0.08193 -1.163682,-0.304426 -2.079561,-1.004747 -2.702947,-2.066771 -0.128742,-0.21933 -0.262182,-0.398781 -0.296524,-0.398781 -0.05272,0 -0.06247,0.622269 -0.06247,4.010499 v 4.010497 h -2.072838 -2.072835 z m 7.854924,1.555596 c 0.651573,-0.138061 1.233897,-0.524196 1.632103,-1.082231 0.578684,-0.81096 0.874182,-1.913094 0.876304,-3.268376 0.004,-2.357685 -0.850391,-3.897417 -2.390651,-4.309964 -0.384827,-0.103072 -1.13424,-0.101103 -1.525253,0.004 -1.214804,0.326568 -1.987426,1.345895 -2.281082,3.009456 -0.09889,0.560378 -0.128722,1.42922 -0.06921,2.018669 0.133984,1.327768 0.513096,2.258153 1.19868,2.941686 0.609958,0.608135 1.633654,0.882848 2.559139,0.686749 z M 24.98938,44.558313 c -0.909856,-0.08623 -1.932966,-0.381797 -2.793828,-0.807122 -2.231062,-1.102293 -3.786745,-3.172415 -4.268417,-5.679913 l -0.102573,-0.533972 v -8.17871 -8.178712 l 0.102573,-0.533966 c 0.633174,-3.296191 3.096909,-5.759927 6.393093,-6.393101 l 0.533968,-0.102573 h 8.178715 8.17871 l 0.533967,0.102573 c 3.296191,0.633174 5.75992,3.09691 6.393102,6.393101 l 0.102572,0.533966 v 8.178712 8.17871 l -0.102572,0.533972 c -0.633069,3.295609 -3.060308,5.731512 -6.369336,6.392066 l -0.512665,0.10234 -8.043533,0.0048 c -4.423937,0.0027 -8.124639,-0.0028 -8.223776,-0.01223 z m 9.598165,-5.06603 c 2.784007,-0.28416 4.979638,-1.43703 6.447759,-3.385562 1.207562,-1.602708 1.820728,-3.463794 1.95252,-5.92635 0.124896,-2.333588 -0.249836,-4.459181 -1.081666,-6.135654 -1.160147,-2.338151 -3.089213,-3.879505 -5.673862,-4.533519 -1.434856,-0.363074 -3.446437,-0.460634 -5.027675,-0.243843 -4.184603,0.57372 -6.990495,3.212882 -7.786198,7.323515 -0.193194,0.998063 -0.231509,1.456097 -0.231509,2.767726 0,1.344231 0.03927,1.793571 0.248004,2.838892 0.580447,2.906596 2.265259,5.176289 4.722674,6.36217 1.741444,0.840368 4.051337,1.175404 6.429953,0.932625 z m -2.117902,-4.294932 c -1.31603,-0.224794 -2.085802,-0.865512 -2.604489,-2.167848 -0.177035,-0.444492 -0.357506,-1.123933 -0.434589,-1.636171 -0.157622,-1.047402 -0.148576,-3.057691 0.01838,-4.085186 0.227085,-1.397503 0.676238,-2.397751 1.370987,-3.053143 0.583022,-0.55 1.216671,-0.765148 2.258036,-0.766711 0.710036,-7.1e-4 1.108946,0.07471 1.616434,0.307043 1.063773,0.487012 1.788805,1.785595 2.062001,3.693198 0.116155,0.811046 0.118179,3.126845 0.0036,3.897842 -0.202326,1.359225 -0.668122,2.413664 -1.341711,3.037286 -0.674506,0.624475 -1.915533,0.950127 -2.948468,0.77369 z m 43.011465,4.366335 c -1.24101,-0.173093 -2.479768,-0.656213 -3.337552,-1.301655 -1.809212,-1.361337 -2.755187,-3.517697 -2.75929,-6.289853 -9.88e-4,-0.868945 0.04888,-1.395641 0.201904,-2.117901 0.772358,-3.646382 3.62148,-5.825366 7.404507,-5.6629 2.004215,0.08607 3.559535,0.741724 4.765368,2.008845 0.772256,0.811506 1.28591,1.768196 1.611113,3.000658 0.213701,0.80994 0.276044,1.341604 0.302471,2.579593 l 0.02422,1.137616 -5.105696,0.01147 -5.105691,0.01147 0.01117,0.315436 c 0.05342,1.511371 0.883104,2.698646 2.171526,3.107338 0.959275,0.304286 2.118491,0.219136 2.947686,-0.216522 0.370562,-0.194693 0.77264,-0.608691 0.985489,-1.01472 l 0.174019,-0.331927 0.253892,0.02613 c 0.139646,0.01437 0.983889,0.07072 1.876117,0.125216 0.892219,0.05449 1.637839,0.112408 1.656923,0.128694 0.01908,0.01628 -0.0172,0.208677 -0.08065,0.427535 -0.432474,1.492328 -1.493077,2.693862 -3.0021,3.401021 -0.722694,0.338667 -1.606814,0.579299 -2.481527,0.675401 -0.587395,0.06454 -1.984661,0.05291 -2.513981,-0.02091 z m 4.280873,-9.395878 c 0,-0.306921 -0.135281,-0.859652 -0.295227,-1.2062 -0.36006,-0.780176 -1.02799,-1.339765 -1.881036,-1.575918 -0.206372,-0.05712 -0.444862,-0.07659 -0.910476,-0.07431 -0.550627,0.0027 -0.674802,0.0177 -0.976336,0.117942 -0.848046,0.281913 -1.481,0.818211 -1.851551,1.568778 -0.21628,0.438081 -0.347113,0.88243 -0.348301,1.182873 l -6.84e-4,0.168981 h 3.131785 3.131805 z m 6.624072,1.691716 v -7.502786 h 1.982714 1.982734 v 1.329322 c 0,1.288612 0.003,1.329322 0.08806,1.329322 0.06504,0 0.136724,-0.09685 0.275007,-0.371758 0.245951,-0.488966 0.508435,-0.850989 0.859768,-1.185783 0.696926,-0.664107 1.533558,-1.058564 2.568198,-1.210854 1.579633,-0.232511 3.115622,0.134858 4.185792,1.001138 0.893836,0.723553 1.479042,1.753028 1.765354,3.105601 l 0.10301,0.48666 0.0131,5.260961 0.013,5.260963 h -2.072727 -2.072699 l -0.01354,-4.742752 c -0.01364,-4.734734 -0.01374,-4.743346 -0.113112,-5.094863 -0.269234,-0.952979 -0.88925,-1.579994 -1.789717,-1.809879 -0.157596,-0.04024 -0.466471,-0.06856 -0.747566,-0.06856 -1.187659,0 -2.024994,0.489144 -2.498621,1.459631 -0.3499,0.716957 -0.338031,0.517392 -0.338031,5.680761 v 4.575669 h -2.095252 -2.095382 z m 18.708707,-0.867092 c -1.58982,-4.603815 -3.14246,-9.100573 -3.4503,-9.9928 l -0.55971,-1.62222 2.30514,-0.01172 c 1.26782,-0.0063 2.32611,-0.0036 2.35178,0.0064 0.0257,0.0097 1.13056,3.426838 2.45534,7.593365 2.23136,7.017819 2.41592,7.575505 2.50694,7.575505 0.0806,0 0.11465,-0.05033 0.19005,-0.281634 0.2602,-0.798331 4.73715,-14.862627 4.73715,-14.881762 0,-0.01236 1.05444,-0.02243 2.34322,-0.02243 1.28876,0 2.34233,0.0152 2.34127,0.0338 -9.9e-4,0.01861 -1.54857,4.515186 -3.43891,9.992445 l -3.43701,9.958655 -2.72716,0.01161 -2.72716,0.01161 z m 17.6111,-1.633836 V 19.354882 h 2.1179 2.11789 v 4.41605 4.416058 l 0.14644,-0.0032 c 0.13873,-0.003 0.33621,-0.236026 3.7428,-4.416058 l 3.59634,-4.412869 h 2.52346 c 2.00726,0 2.51634,0.0115 2.48869,0.0563 -0.0286,0.04651 -3.88529,4.703055 -6.67029,8.053873 -0.38066,0.457998 -0.6824,0.857953 -0.67057,0.888792 0.0118,0.03083 0.84024,1.258058 1.8409,2.727158 2.60405,3.823082 5.55149,8.159058 5.59105,8.224954 0.0269,0.04479 -0.48341,0.05632 -2.49219,0.05632 h -2.52599 l -2.70922,-4.066823 c -1.49007,-2.236755 -2.72453,-4.083554 -2.74326,-4.104 -0.0188,-0.02044 -0.50296,0.534483 -1.07611,1.233179 l -1.04205,1.270352 v 2.833646 2.833646 h -2.11789 -2.1179 z"
         id="path4"
         sodipodi:nodetypes="ccccsscsccscssssscccccscscccscccsscccsscccsscccssccccsssssssscsscsssscsscscccsccssscccccssscssscssccccsssscccccccccssssssscccccccsssscccccscccsscsscccccccccccccscscssssscscccccccc"
         inkscape:label="logo_shadow" />
      <path
         style="display:inline;fill:url(#linearGradient3);fill-opacity:1;stroke-width:0.0450617"
         d="M 51.889773,33.975934 V 23.656788 h 2.050309 2.050308 v 1.26173 c 0,1.227371 0.002,1.261731 0.08922,1.261731 0.05975,0 0.121277,-0.06336 0.186171,-0.191514 0.532932,-1.052536 1.427997,-1.872839 2.422731,-2.220384 0.614223,-0.214591 0.963851,-0.267772 1.762999,-0.268156 0.54798,-2.27e-4 0.844254,0.02108 1.126543,0.08129 2.767671,0.590003 4.521565,2.879759 4.869785,6.357599 0.06921,0.69137 0.02967,2.451452 -0.0689,3.068019 -0.526383,3.290789 -2.303958,5.367515 -4.976908,5.814463 -0.665588,0.111294 -1.70758,0.07425 -2.304593,-0.08193 -1.163682,-0.304426 -2.079561,-1.004747 -2.702947,-2.066771 -0.128742,-0.21933 -0.262182,-0.398781 -0.296524,-0.398781 -0.05272,0 -0.06247,0.622269 -0.06247,4.010499 v 4.010497 h -2.072838 -2.072835 z m 7.854924,1.555596 c 0.651573,-0.138061 1.233897,-0.524196 1.632103,-1.082231 0.578684,-0.81096 0.874182,-1.913094 0.876304,-3.268376 0.004,-2.357685 -0.850391,-3.897417 -2.390651,-4.309964 -0.384827,-0.103072 -1.13424,-0.101103 -1.525253,0.004 -1.214804,0.326568 -1.987426,1.345895 -2.281082,3.009456 -0.09889,0.560378 -0.128722,1.42922 -0.06921,2.018669 0.133984,1.327768 0.513096,2.258153 1.19868,2.941686 0.609958,0.608135 1.633654,0.882848 2.559139,0.686749 z M 24.28943,43.858363 c -0.909856,-0.08623 -1.932966,-0.381797 -2.793828,-0.807122 -2.231062,-1.102293 -3.786745,-3.172415 -4.268417,-5.679913 l -0.102573,-0.533972 v -8.17871 -8.178712 l 0.102573,-0.533966 c 0.633174,-3.296191 3.096909,-5.759927 6.393093,-6.393101 l 0.533968,-0.102573 h 8.178715 8.17871 l 0.533967,0.102573 c 3.296191,0.633174 5.75992,3.09691 6.393102,6.393101 l 0.102572,0.533966 v 8.178712 8.17871 l -0.102572,0.533972 c -0.633069,3.295609 -3.060308,5.731512 -6.369336,6.392066 l -0.512665,0.10234 -8.043533,0.0048 c -4.423937,0.0027 -8.124639,-0.0028 -8.223776,-0.01223 z m 9.598165,-5.06603 c 2.784007,-0.28416 4.979638,-1.43703 6.447759,-3.385562 1.207562,-1.602708 1.820728,-3.463794 1.95252,-5.92635 0.124896,-2.333588 -0.249836,-4.459181 -1.081666,-6.135654 -1.160147,-2.338151 -3.089213,-3.879505 -5.673862,-4.533519 -1.434856,-0.363074 -3.446437,-0.460634 -5.027675,-0.243843 -4.184603,0.57372 -6.990495,3.212882 -7.786198,7.323515 -0.193194,0.998063 -0.231509,1.456097 -0.231509,2.767726 0,1.344231 0.03927,1.793571 0.248004,2.838892 0.580447,2.906596 2.265259,5.176289 4.722674,6.36217 1.741444,0.840368 4.051337,1.175404 6.429953,0.932625 z m -2.117902,-4.294932 c -1.31603,-0.224794 -2.085802,-0.865512 -2.604489,-2.167848 -0.177035,-0.444492 -0.357506,-1.123933 -0.434589,-1.636171 -0.157622,-1.047402 -0.148576,-3.057691 0.01838,-4.085186 0.227085,-1.397503 0.676238,-2.397751 1.370987,-3.053143 0.583022,-0.55 1.216671,-0.765148 2.258036,-0.766711 0.710036,-7.1e-4 1.108946,0.07471 1.616434,0.307043 1.063773,0.487012 1.788805,1.785595 2.062001,3.693198 0.116155,0.811046 0.118179,3.126845 0.0036,3.897842 -0.202326,1.359225 -0.668122,2.413664 -1.341711,3.037286 -0.674506,0.624475 -1.915533,0.950127 -2.948468,0.77369 z m 43.011465,4.366335 c -1.24101,-0.173093 -2.479768,-0.656213 -3.337552,-1.301655 -1.809212,-1.361337 -2.755187,-3.517697 -2.75929,-6.289853 -9.88e-4,-0.868945 0.04888,-1.395641 0.201904,-2.117901 0.772358,-3.646382 3.62148,-5.825366 7.404507,-5.6629 2.004215,0.08607 3.559535,0.741724 4.765368,2.008845 0.772256,0.811506 1.28591,1.768196 1.611113,3.000658 0.213701,0.80994 0.276044,1.341604 0.302471,2.579593 l 0.02422,1.137616 -5.105696,0.01147 -5.105691,0.01147 0.01117,0.315436 c 0.05342,1.511371 0.883104,2.698646 2.171526,3.107338 0.959275,0.304286 2.118491,0.219136 2.947686,-0.216522 0.370562,-0.194693 0.77264,-0.608691 0.985489,-1.01472 l 0.174019,-0.331927 0.253892,0.02613 c 0.139646,0.01437 0.983889,0.07072 1.876117,0.125216 0.892219,0.05449 1.637839,0.112408 1.656923,0.128694 0.01908,0.01628 -0.0172,0.208677 -0.08065,0.427535 -0.432474,1.492328 -1.493077,2.693862 -3.0021,3.401021 -0.722694,0.338667 -1.606814,0.579299 -2.481527,0.675401 -0.587395,0.06454 -1.984661,0.05291 -2.513981,-0.02091 z m 4.280873,-9.395878 c 0,-0.306921 -0.135281,-0.859652 -0.295227,-1.2062 -0.36006,-0.780176 -1.02799,-1.339765 -1.881036,-1.575918 -0.206372,-0.05712 -0.444862,-0.07659 -0.910476,-0.07431 -0.550627,0.0027 -0.674802,0.0177 -0.976336,0.117942 -0.848046,0.281913 -1.481,0.818211 -1.851551,1.568778 -0.21628,0.438081 -0.347113,0.88243 -0.348301,1.182873 l -6.84e-4,0.168981 h 3.131785 3.131805 z m 6.624072,1.691716 v -7.502786 h 1.982714 1.982734 v 1.329322 c 0,1.288612 0.003,1.329322 0.08806,1.329322 0.06504,0 0.136724,-0.09685 0.275007,-0.371758 0.245951,-0.488966 0.508435,-0.850989 0.859768,-1.185783 0.696926,-0.664107 1.533558,-1.058564 2.568198,-1.210854 1.579633,-0.232511 3.115622,0.134858 4.185792,1.001138 0.893836,0.723553 1.479042,1.753028 1.765356,3.105601 l 0.103011,0.48666 0.01305,5.260961 0.01305,5.260963 h -2.07273 -2.072699 l -0.01354,-4.742752 c -0.01364,-4.734734 -0.01374,-4.743346 -0.113112,-5.094863 -0.269234,-0.952979 -0.88925,-1.579994 -1.789717,-1.809879 -0.157596,-0.04024 -0.466471,-0.06856 -0.747566,-0.06856 -1.187659,0 -2.024994,0.489144 -2.498621,1.459631 -0.3499,0.716957 -0.338031,0.517392 -0.338031,5.680761 v 4.575669 h -2.095252 -2.095382 z m 18.708717,-0.867092 c -1.58982,-4.603815 -3.14246,-9.100573 -3.4503,-9.9928 l -0.55971,-1.62222 2.30514,-0.01172 c 1.26782,-0.0063 2.32611,-0.0036 2.35178,0.0064 0.0257,0.0097 1.13056,3.426838 2.45534,7.593365 2.23136,7.017819 2.41592,7.575505 2.50694,7.575505 0.0806,0 0.11465,-0.05033 0.19005,-0.281634 0.2602,-0.798331 4.73715,-14.862627 4.73715,-14.881762 0,-0.01236 1.05444,-0.02243 2.34322,-0.02243 1.28876,0 2.34233,0.0152 2.34127,0.0338 -9.9e-4,0.01861 -1.54857,4.515186 -3.43891,9.992445 l -3.43701,9.958655 -2.72716,0.01161 -2.72716,0.01161 z m 17.6111,-1.633836 V 18.654932 h 2.1179 2.11789 v 4.41605 4.416058 l 0.14644,-0.0032 c 0.13873,-0.003 0.33621,-0.236026 3.7428,-4.416058 l 3.59634,-4.412869 h 2.52346 c 2.00726,0 2.51634,0.0115 2.48869,0.0563 -0.0286,0.04651 -3.88529,4.703055 -6.67029,8.053873 -0.38066,0.457998 -0.6824,0.857953 -0.67057,0.888792 0.0118,0.03083 0.84024,1.258058 1.8409,2.727158 2.60405,3.823082 5.55149,8.159058 5.59105,8.224954 0.0269,0.04479 -0.48341,0.05632 -2.49219,0.05632 h -2.52599 l -2.70922,-4.066823 c -1.49007,-2.236755 -2.72453,-4.083554 -2.74326,-4.104 -0.0188,-0.02044 -0.50296,0.534483 -1.07611,1.233179 l -1.04205,1.270352 v 2.833646 2.833646 h -2.11789 -2.1179 z"
         id="path39"
         sodipodi:nodetypes="ccccsscsccscssssscccccscscccscccsscccsscccsscccssccccsssssssscsscsssscsscscccsccssscccccssscssscssccccsssscccccccccssssssscccccccsssscccccscccsscsscccccccccccccscscssssscscccccccc"
         inkscape:label="logo" />
    </g>
  </g>
</svg>
