<?xml version="1.0" encoding="UTF-8" standalone="no"?>
<!-- Created with Inkscape (http://www.inkscape.org/) -->

<svg
   width="27.906cm"
   height="1.587cm"
   viewBox="0 0 279.06 15.87"
   version="1.1"
   id="svg1"
   inkscape:version="1.4.2 (ebf0e940d0, 2025-05-08)"
   sodipodi:docname="header_custom.svg"
   xml:space="preserve"
   xmlns:inkscape="http://www.inkscape.org/namespaces/inkscape"
   xmlns:sodipodi="http://sodipodi.sourceforge.net/DTD/sodipodi-0.dtd"
   xmlns:xlink="http://www.w3.org/1999/xlink"
   xmlns="http://www.w3.org/2000/svg"
   xmlns:svg="http://www.w3.org/2000/svg"><sodipodi:namedview
     id="namedview1"
     pagecolor="#ffffff"
     bordercolor="#000000"
     borderopacity="0.25"
     inkscape:showpageshadow="2"
     inkscape:pageopacity="0.0"
     inkscape:pagecheckerboard="0"
     inkscape:deskcolor="#d1d1d1"
     inkscape:document-units="mm"
     inkscape:zoom="16"
     inkscape:cx="-21.5625"
     inkscape:cy="40.53125"
     inkscape:window-width="2048"
     inkscape:window-height="1044"
     inkscape:window-x="0"
     inkscape:window-y="0"
     inkscape:window-maximized="1"
     inkscape:current-layer="layer1"
     showgrid="true"><inkscape:grid
       id="grid4"
       units="mm"
       originx="0"
       originy="0"
       spacingx="1"
       spacingy="1"
       empcolor="#0099e5"
       empopacity="0.30196078"
       color="#0099e5"
       opacity="0.14901961"
       empspacing="5"
       enabled="true"
       visible="true" /></sodipodi:namedview><defs
     id="defs1"><linearGradient
       id="linearGradient17"
       inkscape:collect="always"><stop
         style="stop-color:#ffffff;stop-opacity:1;"
         offset="0"
         id="stop17" /><stop
         style="stop-color:#cecacd;stop-opacity:1;"
         offset="1"
         id="stop18" /></linearGradient><linearGradient
       id="swatch10"
       inkscape:swatch="solid"><stop
         style="stop-color:#000000;stop-opacity:1;"
         offset="0"
         id="stop10" /></linearGradient><inkscape:path-effect
       effect="fillet_chamfer"
       id="path-effect2"
       is_visible="true"
       lpeversion="1"
       nodesatellites_param="F,0,0,1,0,0,0,1 @ F,0,0,1,0,0,0,1 @ F,0,1,1,0,12.712295,0,1 @ F,0,0,1,0,12.712295,0,1"
       radius="0"
       unit="px"
       method="auto"
       mode="F"
       chamfer_steps="1"
       flexible="false"
       use_knot_distance="true"
       apply_no_radius="true"
       apply_with_radius="true"
       only_selected="false"
       hide_knots="false" /><linearGradient
       inkscape:collect="always"
       xlink:href="#linearGradient28"
       id="linearGradient29"
       x1="525.49231"
       y1="0.032960102"
       x2="525.49231"
       y2="53.867008"
       gradientUnits="userSpaceOnUse" /><linearGradient
       id="linearGradient28"
       inkscape:collect="always"><stop
         style="stop-color:#3c3c3c;stop-opacity:1"
         offset="0"
         id="stop28" /><stop
         style="stop-color:#7a7a7a;stop-opacity:1;"
         offset="1"
         id="stop29" /></linearGradient><inkscape:path-effect
       effect="fillet_chamfer"
       id="path-effect28"
       is_visible="true"
       lpeversion="1"
       nodesatellites_param="F,0,0,1,0,0,0,1 @ F,0,0,1,0,0,0,1 @ F,0,1,1,0,12.712295,0,1 @ F,0,0,1,0,12.712295,0,1"
       radius="0"
       unit="px"
       method="auto"
       mode="F"
       chamfer_steps="1"
       flexible="false"
       use_knot_distance="true"
       apply_no_radius="true"
       apply_with_radius="true"
       only_selected="false"
       hide_knots="false" /><inkscape:path-effect
       effect="fillet_chamfer"
       id="path-effect30"
       is_visible="true"
       lpeversion="1"
       nodesatellites_param="F,0,0,1,0,0,0,1 @ F,0,0,1,0,0,0,1 @ F,0,1,1,0,12.712295,0,1 @ F,0,0,1,0,12.712295,0,1"
       radius="0"
       unit="px"
       method="auto"
       mode="F"
       chamfer_steps="1"
       flexible="false"
       use_knot_distance="true"
       apply_no_radius="true"
       apply_with_radius="true"
       only_selected="false"
       hide_knots="false" /><inkscape:path-effect
       effect="fillet_chamfer"
       id="path-effect7-0"
       is_visible="true"
       lpeversion="1"
       nodesatellites_param="F,0,0,1,0,0,0,1 @ F,0,0,1,0,0,0,1 @ F,0,1,1,0,12.712295,0,1 @ F,0,0,1,0,12.712295,0,1"
       radius="0"
       unit="px"
       method="auto"
       mode="F"
       chamfer_steps="1"
       flexible="false"
       use_knot_distance="true"
       apply_no_radius="true"
       apply_with_radius="true"
       only_selected="false"
       hide_knots="false" /><filter
       inkscape:collect="always"
       style="color-interpolation-filters:sRGB"
       id="filter4"
       x="-0.024347539"
       y="-0.024344156"
       width="1.0486951"
       height="1.0486883"><feGaussianBlur
         inkscape:collect="always"
         stdDeviation="0.30857158"
         id="feGaussianBlur4" /></filter><linearGradient
       inkscape:collect="always"
       xlink:href="#linearGradient2"
       id="linearGradient3"
       x1="70.447495"
       y1="13.650469"
       x2="70.447495"
       y2="43.876106"
       gradientUnits="userSpaceOnUse" /><linearGradient
       id="linearGradient2"
       inkscape:collect="always"><stop
         style="stop-color:#ffffff;stop-opacity:1;"
         offset="0"
         id="stop2" /><stop
         style="stop-color:#f0eff0;stop-opacity:1;"
         offset="0.48918533"
         id="stop4" /><stop
         style="stop-color:#cecacd;stop-opacity:1;"
         offset="1"
         id="stop3" /></linearGradient><linearGradient
       inkscape:collect="always"
       xlink:href="#linearGradient17"
       id="linearGradient18"
       x1="16.408041"
       y1="3.6786044"
       x2="16.408041"
       y2="11.823381"
       gradientUnits="userSpaceOnUse"
       gradientTransform="matrix(4.2689844,0,0,3.7795276,-8.0836488,-0.00226016)" /><filter
       inkscape:collect="always"
       style="color-interpolation-filters:sRGB"
       id="filter19"
       x="-0.50014521"
       y="-0.012398312"
       width="2.0002904"
       height="1.0247966"><feGaussianBlur
         inkscape:collect="always"
         stdDeviation="0.041923005"
         id="feGaussianBlur19" /></filter><inkscape:path-effect
       effect="fillet_chamfer"
       id="path-effect4"
       is_visible="true"
       lpeversion="1"
       nodesatellites_param="F,0,0,1,0,0,0,1 @ F,0,0,1,0,0,0,1 @ F,0,1,1,0,12.712295,0,1 @ F,0,0,1,0,12.712295,0,1"
       radius="0"
       unit="px"
       method="auto"
       mode="F"
       chamfer_steps="1"
       flexible="false"
       use_knot_distance="true"
       apply_no_radius="true"
       apply_with_radius="true"
       only_selected="false"
       hide_knots="false" /><inkscape:path-effect
       effect="fillet_chamfer"
       id="path-effect2-1"
       is_visible="true"
       lpeversion="1"
       nodesatellites_param="F,0,0,1,0,0,0,1 @ F,0,0,1,0,0,0,1 @ F,0,1,1,0,12.712295,0,1 @ F,0,0,1,0,12.712295,0,1"
       radius="0"
       unit="px"
       method="auto"
       mode="F"
       chamfer_steps="1"
       flexible="false"
       use_knot_distance="true"
       apply_no_radius="true"
       apply_with_radius="true"
       only_selected="false"
       hide_knots="false" /><inkscape:path-effect
       effect="fillet_chamfer"
       id="path-effect28-0"
       is_visible="true"
       lpeversion="1"
       nodesatellites_param="F,0,0,1,0,0,0,1 @ F,0,0,1,0,0,0,1 @ F,0,1,1,0,12.712295,0,1 @ F,0,0,1,0,12.712295,0,1"
       radius="0"
       unit="px"
       method="auto"
       mode="F"
       chamfer_steps="1"
       flexible="false"
       use_knot_distance="true"
       apply_no_radius="true"
       apply_with_radius="true"
       only_selected="false"
       hide_knots="false" /><inkscape:path-effect
       effect="fillet_chamfer"
       id="path-effect30-9"
       is_visible="true"
       lpeversion="1"
       nodesatellites_param="F,0,0,1,0,0,0,1 @ F,0,0,1,0,0,0,1 @ F,0,1,1,0,12.712295,0,1 @ F,0,0,1,0,12.712295,0,1"
       radius="0"
       unit="px"
       method="auto"
       mode="F"
       chamfer_steps="1"
       flexible="false"
       use_knot_distance="true"
       apply_no_radius="true"
       apply_with_radius="true"
       only_selected="false"
       hide_knots="false" /><inkscape:path-effect
       effect="fillet_chamfer"
       id="path-effect7-0-3"
       is_visible="true"
       lpeversion="1"
       nodesatellites_param="F,0,0,1,0,0,0,1 @ F,0,0,1,0,0,0,1 @ F,0,1,1,0,12.712295,0,1 @ F,0,0,1,0,12.712295,0,1"
       radius="0"
       unit="px"
       method="auto"
       mode="F"
       chamfer_steps="1"
       flexible="false"
       use_knot_distance="true"
       apply_no_radius="true"
       apply_with_radius="true"
       only_selected="false"
       hide_knots="false" /></defs><g
     inkscape:label="Layer 1"
     inkscape:groupmode="layer"
     id="layer1"
     transform="translate(-29.972808,-36.208395)"
     style="display:inline"><g
       id="g30"
       inkscape:label="vector_head"
       style="display:inline"
       transform="matrix(0.26458333,0,0,0.26458333,29.973806,36.208993)"><path
         id="path27"
         style="display:inline;fill:url(#linearGradient29);stroke:none;stroke-width:6.663;stroke-dasharray:none;stroke-opacity:1"
         d="M 0.00152356,0 H 1054.6669 v 43.994351 a 12.712295,12.712295 135 0 1 -12.7123,12.712295 l -1029.240781,0 A 12.712295,12.712295 45 0 1 0.00152356,43.994351 Z"
         sodipodi:nodetypes="ccccc"
         inkscape:label="header"
         inkscape:original-d="M 0.00152356,0 H 1054.6669 v 56.706646 c -351.55513,0 -703.11025,0 -1054.66537644,0 z"
         inkscape:path-effect="#path-effect28" /><path
         id="path1-9"
         style="display:inline;opacity:0.9;mix-blend-mode:normal;fill:none;fill-opacity:1;stroke:#d1d1d1;stroke-width:0.991645;stroke-dasharray:none;stroke-opacity:1"
         d="M 1052.7201,-0.00370481 V 42.011137 c 0,7.023453 -5.6719,12.717086 -12.6684,12.717083 H 14.366746 c -6.9965509,0 -12.6683765,-5.693632 -12.6683765,-12.717083 V -0.00370481"
         sodipodi:nodetypes="ccccsc"
         inkscape:label="edging_white"
         transform="translate(8.5039151e-4,0.00279307)" /><path
         style="display:inline;mix-blend-mode:normal;fill:#000000;fill-opacity:1;stroke-width:0.045;stroke-dasharray:none;filter:url(#filter4)"
         d="m 24.98938,44.558313 c -0.909856,-0.08623 -1.932966,-0.381797 -2.793828,-0.807122 -2.231062,-1.102293 -3.786745,-3.172415 -4.268417,-5.679913 l -0.102573,-0.533972 v -8.17871 -8.178712 l 0.102573,-0.533966 c 0.633174,-3.296191 3.096909,-5.759927 6.393093,-6.393101 l 0.533968,-0.102573 h 8.178715 8.17871 l 0.533967,0.102573 c 3.296191,0.633174 5.75992,3.09691 6.393102,6.393101 l 0.102572,0.533966 v 8.178712 8.17871 l -0.102572,0.533972 c -0.633069,3.295609 -3.060308,5.731512 -6.369336,6.392066 l -0.512665,0.10234 -8.043533,0.0048 c -4.423937,0.0027 -8.124639,-0.0028 -8.223776,-0.01223 z m 9.598165,-5.06603 c 2.784007,-0.28416 4.979638,-1.43703 6.447759,-3.385562 1.207562,-1.602708 1.820728,-3.463794 1.95252,-5.92635 0.124896,-2.333588 -0.249836,-4.459181 -1.081666,-6.135654 -1.160147,-2.338151 -3.089213,-3.879505 -5.673862,-4.533519 -1.434856,-0.363074 -3.446437,-0.460634 -5.027675,-0.243843 -4.184603,0.57372 -6.990495,3.212882 -7.786198,7.323515 -0.193194,0.998063 -0.231509,1.456097 -0.231509,2.767726 0,1.344231 0.03927,1.793571 0.248004,2.838892 0.580447,2.906596 2.265259,5.176289 4.722674,6.36217 1.741444,0.840368 4.051337,1.175404 6.429953,0.932625 z m -2.117902,-4.294932 c -1.31603,-0.224794 -2.085802,-0.865512 -2.604489,-2.167848 -0.177035,-0.444492 -0.357506,-1.123933 -0.434589,-1.636171 -0.157622,-1.047402 -0.148576,-3.057691 0.01838,-4.085186 0.227085,-1.397503 0.676238,-2.397751 1.370987,-3.053143 0.583022,-0.55 1.216671,-0.765148 2.258036,-0.766711 0.710036,-7.1e-4 1.108946,0.07471 1.616434,0.307043 1.063773,0.487012 1.788805,1.785595 2.062001,3.693198 0.116155,0.811046 0.118179,3.126845 0.0036,3.897842 -0.202326,1.359225 -0.668122,2.413664 -1.341711,3.037286 -0.674506,0.624475 -1.915533,0.950127 -2.948468,0.77369 z"
         id="path4"
         sodipodi:nodetypes="csscccsscccsscccssccccsssssssscsscsssscsscscc"
         inkscape:label="logo_shadow" /><path
         style="display:inline;fill:url(#linearGradient3);fill-opacity:1;stroke-width:0.0450617"
         d="m 24.28943,43.858363 c -0.909856,-0.08623 -1.932966,-0.381797 -2.793828,-0.807122 -2.231062,-1.102293 -3.786745,-3.172415 -4.268417,-5.679913 l -0.102573,-0.533972 v -8.17871 -8.178712 l 0.102573,-0.533966 c 0.633174,-3.296191 3.096909,-5.759927 6.393093,-6.393101 l 0.533968,-0.102573 h 8.178715 8.17871 l 0.533967,0.102573 c 3.296191,0.633174 5.75992,3.09691 6.393102,6.393101 l 0.102572,0.533966 v 8.178712 8.17871 l -0.102572,0.533972 c -0.633069,3.295609 -3.060308,5.731512 -6.369336,6.392066 l -0.512665,0.10234 -8.043533,0.0048 c -4.423937,0.0027 -8.124639,-0.0028 -8.223776,-0.01223 z m 9.598165,-5.06603 c 2.784007,-0.28416 4.979638,-1.43703 6.447759,-3.385562 1.207562,-1.602708 1.820728,-3.463794 1.95252,-5.92635 0.124896,-2.333588 -0.249836,-4.459181 -1.081666,-6.135654 -1.160147,-2.338151 -3.089213,-3.879505 -5.673862,-4.533519 -1.434856,-0.363074 -3.446437,-0.460634 -5.027675,-0.243843 -4.184603,0.57372 -6.990495,3.212882 -7.786198,7.323515 -0.193194,0.998063 -0.231509,1.456097 -0.231509,2.767726 0,1.344231 0.03927,1.793571 0.248004,2.838892 0.580447,2.906596 2.265259,5.176289 4.722674,6.36217 1.741444,0.840368 4.051337,1.175404 6.429953,0.932625 z m -2.117902,-4.294932 c -1.31603,-0.224794 -2.085802,-0.865512 -2.604489,-2.167848 -0.177035,-0.444492 -0.357506,-1.123933 -0.434589,-1.636171 -0.157622,-1.047402 -0.148576,-3.057691 0.01838,-4.085186 0.227085,-1.397503 0.676238,-2.397751 1.370987,-3.053143 0.583022,-0.55 1.216671,-0.765148 2.258036,-0.766711 0.710036,-7.1e-4 1.108946,0.07471 1.616434,0.307043 1.063773,0.487012 1.788805,1.785595 2.062001,3.693198 0.116155,0.811046 0.118179,3.126845 0.0036,3.897842 -0.202326,1.359225 -0.668122,2.413664 -1.341711,3.037286 -0.674506,0.624475 -1.915533,0.950127 -2.948468,0.77369 z"
         id="path39"
         sodipodi:nodetypes="csscccsscccsscccssccccsssssssscsscsssscsscscc"
         inkscape:label="logo" /><path
         style="baseline-shift:baseline;display:inline;overflow:visible;opacity:1;mix-blend-mode:normal;vector-effect:none;fill:#000000;fill-opacity:1;filter:url(#filter19);enable-background:accumulate;stop-color:#000000;stop-opacity:1"
         d="m 16.304687,3.6953125 v 8.1152345 h 0.201172 V 3.6953125 Z"
         id="path16"
         transform="matrix(4.2689844,0,0,3.7795276,-7.6374201,0.37070951)"
         inkscape:label="vertical_bar_shadow"
         sodipodi:nodetypes="ccccc" /><path
         style="baseline-shift:baseline;display:inline;overflow:visible;opacity:1;fill:url(#linearGradient18);fill-opacity:1;stroke-width:4.41848;stroke-dasharray:none;enable-background:accumulate;stop-color:#000000;stop-opacity:1"
         d="m 61.520806,13.964275 v 30.671753 h 0.8588 V 13.964275 Z"
         id="path19"
         inkscape:label="vertical_bar" /></g></g></svg>
