<?xml version="1.0" encoding="UTF-8" standalone="no"?>
<svg width="714.61047mm" height="181.10728mm" viewBox="0 0 714.61047 181.10729" version="1.1" xmlns="http://www.w3.org/2000/svg">
<g transform="translate(289.63699,-10.412317)">
<path style="fill:#ffffff;stroke-width:0.264583" d="M -85.510951,130.93002 V 70.34044 h 12.038542 12.038542 v 7.408334 c 0,7.206591 0.01426,7.408333 0.52379,7.408333 0.35052,0 0.712131,-0.371972 1.09315,-1.124479 3.129164,-6.18005 8.384564,-10.996504 14.225265,-13.037122 3.606405,-1.260004 5.65931,-1.57226 10.351545,-1.574514 3.217487,-0.0016 4.957091,0.123986 6.614583,0.47733 16.25055,3.464261 26.5486892,16.908676 28.59328321,37.329068 0.406453,4.05943 0.174175,14.39387 -0.404892,18.01409 -3.09067701,19.32209 -13.52782821,31.51573 -29.22220521,34.14002 -3.908034,0.65347 -10.026214,0.43596 -13.531588,-0.48107 -6.832661,-1.78747 -12.210349,-5.89944 -15.870558,-12.1352 -0.755901,-1.2878 -1.539388,-2.34146 -1.74108,-2.34146 -0.309811,0 -0.36671,3.6537 -0.36671,23.54792 v 23.54791 h -12.170833 -12.170834 z m 46.12073,9.13378 c 3.825735,-0.81063 7.24493,-3.07785 9.583019,-6.35439 3.397811,-4.76161 5.13285,-11.23286 5.145259,-19.19049 0.0217,-13.84332 -4.99309,-22.883961 -14.036871,-25.306259 -2.259505,-0.605189 -6.659758,-0.593624 -8.955564,0.02355 -7.132854,1.917462 -11.669366,7.90252 -13.393563,17.670239 -0.5808,3.29029 -0.755785,8.39176 -0.406556,11.85275 0.786654,7.79608 3.012639,13.2589 7.038105,17.27231 3.581442,3.57071 9.592156,5.1837 15.026171,4.0323 z m -208.178019,48.89158 c -5.34232,-0.5063 -11.34955,-2.24175 -16.40416,-4.73907 -13.09983,-6.47219 -22.23414,-18.62706 -25.06233,-33.35001 l -0.60226,-3.13524 V 99.70919 51.687316 l 0.60226,-3.135233 c 3.71774,-19.353782 18.18373,-33.819766 37.53751,-37.537508 l 3.13523,-0.602258 h 48.02188 48.02187 l 3.13524,0.602258 c 19.35378,3.717742 33.81976,18.183726 37.5375,37.537508 l 0.60226,3.135233 v 48.021874 48.02187 l -0.60226,3.13524 c -3.71709,19.35041 -17.9688,33.65298 -37.39798,37.53146 l -3.01017,0.6009 -47.22813,0.0285 c -25.97547,0.0157 -47.70437,-0.0166 -48.28646,-0.0718 z m 56.35625,-29.74555 c 16.34652,-1.66846 29.23832,-8.43762 37.8585,-19.87855 7.09029,-9.41041 10.6905,-20.33792 11.46434,-34.79698 0.73332,-13.70182 -1.46691,-26.182385 -6.35109,-36.025909 -6.81188,-13.728599 -18.13852,-22.778796 -33.31446,-26.618871 -8.42487,-2.131806 -20.236,-2.704642 -29.52036,-1.431726 -24.57017,3.368648 -41.04515,18.864619 -45.71718,43.00049 -1.13437,5.860208 -1.35933,8.549589 -1.35933,16.250906 0,7.89275 0.23048,10.53107 1.45618,16.66875 3.40813,17.06628 13.3006,30.39294 27.72952,37.35592 10.22499,4.93428 23.7877,6.90147 37.75388,5.47597 z m -12.43541,-25.21799 c -7.72714,-1.31989 -12.2469,-5.08191 -15.29243,-12.72867 -1.03945,-2.60986 -2.09908,-6.59925 -2.5517,-9.60688 -0.9255,-6.14991 -0.87238,-17.953451 0.10795,-23.986454 1.33335,-8.205528 3.9706,-14.078574 8.04985,-17.92674 3.42328,-3.229348 7.14376,-4.492628 13.2582,-4.501798 4.16904,-0.0062 6.51129,0.43866 9.49104,1.802834 6.24602,2.859524 10.50308,10.484241 12.10717,21.68485 0.682,4.762114 0.6939,18.359488 0.02,22.886458 -1.18801,7.98078 -3.92295,14.17199 -7.87796,17.83363 -3.96042,3.66665 -11.24721,5.57873 -17.31215,4.54277 z m 252.544783,25.63724 c -7.286651,-1.01633 -14.5601,-3.853 -19.596655,-7.64276 -10.622889,-7.99318 -16.177261,-20.6544 -16.201391,-36.9313 -0.0077,-5.10207 0.287232,-8.19461 1.185519,-12.43541 4.534932,-21.40998 21.263769,-34.20404 43.476069,-33.250082 11.767899,0.505399 20.900073,4.355063 27.98016,11.795051 4.53435,4.764812 7.55037,10.382083 9.45973,17.618569 1.25479,4.755622 1.62084,7.877332 1.7761,15.146262 l 0.14266,6.67959 -29.978456,0.0673 -29.97843,0.0673 0.06541,1.85209 c 0.313452,8.87412 5.185145,15.84529 12.750218,18.24495 5.632476,1.78663 12.438883,1.28667 17.30756,-1.27132 2.175801,-1.14316 4.536599,-3.57397 5.786358,-5.958 l 1.021715,-1.94894 1.490769,0.15344 c 0.819943,0.0844 5.777036,0.41524 11.015796,0.73521 5.23875,0.31998 9.61666,0.66002 9.72868,0.75564 0.11202,0.0956 -0.10099,1.22526 -0.47339,2.5103 -2.53924,8.76231 -8.7666,15.81719 -17.626999,19.96932 -4.243393,1.98851 -9.434571,3.4014 -14.570477,3.96567 -3.448897,0.37891 -11.653071,0.31064 -14.760946,-0.12284 z M 74.0328,104.46053 c 0,-1.80211 -0.794332,-5.047504 -1.733418,-7.082277 -2.114179,-4.580871 -6.035966,-7.86652 -11.044661,-9.253114 -1.211685,-0.335441 -2.611993,-0.449731 -5.345879,-0.436314 -3.233024,0.01588 -3.962162,0.103945 -5.732648,0.6925 -4.979326,1.655281 -8.695822,4.804195 -10.871518,9.211198 -1.269867,2.572217 -2.038085,5.181247 -2.045044,6.945317 l -0.0039,0.99218 h 18.388541 18.388542 z m 38.89376,9.93303 V 70.34044 h 11.64166 11.64167 v 7.805209 c 0,7.566167 0.0159,7.805208 0.51673,7.805208 0.38208,0 0.80277,-0.568717 1.6147,-2.182813 1.44412,-2.870988 2.98537,-4.996635 5.04825,-6.962404 4.09199,-3.899358 9.00433,-6.215444 15.07926,-7.109621 9.275,-1.365192 18.29367,0.791855 24.57718,5.878256 5.24827,4.248403 8.68431,10.293032 10.36539,18.234762 l 0.60487,2.857445 0.077,30.890098 0.077,30.89011 h -12.16999 -12.17001 l -0.0801,-27.8474 c -0.0799,-27.80032 -0.0811,-27.85089 -0.66416,-29.91483 -1.58083,-5.595495 -5.22134,-9.277051 -10.5084,-10.626841 -0.92541,-0.236257 -2.73897,-0.402595 -4.38944,-0.402595 -6.97349,0 -11.8899,2.872044 -14.6708,8.570317 -2.05441,4.209669 -1.98469,3.037909 -1.98469,33.354989 v 26.86636 h -12.303 -12.30312 z m 109.84949,-5.09119 C 213.44123,82.270757 204.3248,55.867732 202.5173,50.628983 l -3.28631,-9.525 13.53476,-0.06881 c 7.44411,-0.03785 13.65801,-0.02164 13.80866,0.03603 0.15063,0.05766 6.63813,20.120892 14.41664,44.584958 13.10162,41.205609 14.18524,44.480109 14.71965,44.480109 0.47376,0 0.67323,-0.2956 1.11588,-1.65364 1.52786,-4.68745 27.81456,-87.266941 27.81456,-87.379272 0,-0.07242 6.19125,-0.131665 13.75833,-0.131665 7.56709,0 13.75326,0.0893 13.74704,0.198438 -0.006,0.10914 -9.09254,26.511249 -20.19186,58.671353 l -20.18057,58.472916 -16.01279,0.0682 -16.0128,0.0682 z M 326.18072,99.70919 V 40.971691 h 12.43542 12.43542 v 25.929166 25.929166 l 0.85989,-0.01871 c 0.81452,-0.0177 1.97406,-1.385837 21.97603,-25.929166 l 21.11616,-25.910456 h 14.81666 c 11.78579,0 14.77489,0.06765 14.61254,0.330729 -0.16843,0.272934 -22.81282,27.614334 -39.16502,47.288865 -2.23507,2.689161 -4.00691,5.037526 -3.93743,5.218588 0.0695,0.181065 4.93353,7.386777 10.80897,16.012697 15.2899,22.44749 32.59609,47.90648 32.82829,48.29339 0.15782,0.26301 -2.83837,0.33073 -14.63308,0.33073 h -14.83153 l -15.90733,-23.87865 c -8.74903,-13.13325 -15.99729,-23.97686 -16.10723,-24.09691 -0.10996,-0.12005 -2.95325,3.13826 -6.31843,7.2407 l -6.11849,7.45896 v 16.63795 16.63795 h -12.43542 -12.43542 z"/>
</g>
</svg>
