<?xml version="1.0" encoding="UTF-8" standalone="no"?>
<svg width="11" height="11" viewBox="0 0 2.9104165 2.9104168" version="1.1" xmlns="http://www.w3.org/2000/svg">
<path style="fill:#a2b3c6;fill-opacity:1;stroke:none;stroke-width:0.264583px;stroke-linecap:butt;stroke-linejoin:miter;stroke-opacity:1" d="m 0,0.79375 c 0,0 0,-0.52916666 0.5291667,-0.52916666 0.5291666,0 1.8520833,0 1.8520833,0 0,0 0.5291666,0 0.5291666,0.52916666 0,0.5291666 0,1.3229166 0,1.3229166 0,0 0,0.5291667 -0.5291666,0.5291667 -0.5291667,0 -1.8520833,0 -1.8520833,0 0,0 -0.5291667,0 -0.5291667,-0.5291667 C 0,1.5875 0,0.79375 0,0.79375 Z" /> 
<path style="fill:none;stroke:#ffffff;stroke-width:0.264583px;stroke-linecap:round;stroke-linejoin:round;stroke-opacity:1" d="M 0.39274088,0.66145833 1.4552083,1.7239258 2.5176757,0.66145833"/>
<path style="fill:none;stroke:#ffffff;stroke-width:0.26458333;stroke-linecap:round;stroke-linejoin:miter;stroke-opacity:1;stroke-miterlimit:4;stroke-dasharray:none" d="M 0.396875,2.2489583 1.190625,1.4593424"/>
<path style="fill:none;stroke:#ffffff;stroke-width:0.26458333;stroke-linecap:round;stroke-linejoin:miter;stroke-opacity:1;stroke-miterlimit:4;stroke-dasharray:none" d="m 2.5135416,2.2489583 -0.79375,-0.79375"/>
</svg>
