<?xml version="1.0" encoding="UTF-8" standalone="no"?>
<!-- Created with Inkscape (http://www.inkscape.org/) -->

<svg
   width="27.906cm"
   height="1.587cm"
   viewBox="0 0 279.06 15.87"
   version="1.1"
   id="svg1"
   inkscape:version="1.4.2 (ebf0e940d0, 2025-05-08)"
   sodipodi:docname="xheader_custom.svg"
   xml:space="preserve"
   xmlns:inkscape="http://www.inkscape.org/namespaces/inkscape"
   xmlns:sodipodi="http://sodipodi.sourceforge.net/DTD/sodipodi-0.dtd"
   xmlns:xlink="http://www.w3.org/1999/xlink"
   xmlns="http://www.w3.org/2000/svg"
   xmlns:svg="http://www.w3.org/2000/svg"><sodipodi:namedview
     id="namedview1"
     pagecolor="#ffffff"
     bordercolor="#000000"
     borderopacity="0.25"
     inkscape:showpageshadow="2"
     inkscape:pageopacity="0.0"
     inkscape:pagecheckerboard="0"
     inkscape:deskcolor="#d1d1d1"
     inkscape:document-units="mm"
     inkscape:zoom="5.6568543"
     inkscape:cx="41.18897"
     inkscape:cy="28.37266"
     inkscape:window-width="2048"
     inkscape:window-height="1044"
     inkscape:window-x="0"
     inkscape:window-y="0"
     inkscape:window-maximized="1"
     inkscape:current-layer="layer1" /><defs
     id="defs1"><linearGradient
       id="linearGradient17"
       inkscape:collect="always"><stop
         style="stop-color:#ffffff;stop-opacity:1;"
         offset="0"
         id="stop17" /><stop
         style="stop-color:#cecacd;stop-opacity:1;"
         offset="1"
         id="stop18" /></linearGradient><linearGradient
       id="swatch10"
       inkscape:swatch="solid"><stop
         style="stop-color:#000000;stop-opacity:1;"
         offset="0"
         id="stop10" /></linearGradient><inkscape:path-effect
       effect="fillet_chamfer"
       id="path-effect2"
       is_visible="true"
       lpeversion="1"
       nodesatellites_param="F,0,0,1,0,0,0,1 @ F,0,0,1,0,0,0,1 @ F,0,1,1,0,12.712295,0,1 @ F,0,0,1,0,12.712295,0,1"
       radius="0"
       unit="px"
       method="auto"
       mode="F"
       chamfer_steps="1"
       flexible="false"
       use_knot_distance="true"
       apply_no_radius="true"
       apply_with_radius="true"
       only_selected="false"
       hide_knots="false" /><linearGradient
       inkscape:collect="always"
       xlink:href="#linearGradient28"
       id="linearGradient29"
       x1="525.49231"
       y1="0.032960102"
       x2="525.49231"
       y2="53.867008"
       gradientUnits="userSpaceOnUse" /><linearGradient
       id="linearGradient28"
       inkscape:collect="always"><stop
         style="stop-color:#3c3c3c;stop-opacity:1"
         offset="0"
         id="stop28" /><stop
         style="stop-color:#7a7a7a;stop-opacity:1;"
         offset="1"
         id="stop29" /></linearGradient><inkscape:path-effect
       effect="fillet_chamfer"
       id="path-effect28"
       is_visible="true"
       lpeversion="1"
       nodesatellites_param="F,0,0,1,0,0,0,1 @ F,0,0,1,0,0,0,1 @ F,0,1,1,0,12.712295,0,1 @ F,0,0,1,0,12.712295,0,1"
       radius="0"
       unit="px"
       method="auto"
       mode="F"
       chamfer_steps="1"
       flexible="false"
       use_knot_distance="true"
       apply_no_radius="true"
       apply_with_radius="true"
       only_selected="false"
       hide_knots="false" /><inkscape:path-effect
       effect="fillet_chamfer"
       id="path-effect30"
       is_visible="true"
       lpeversion="1"
       nodesatellites_param="F,0,0,1,0,0,0,1 @ F,0,0,1,0,0,0,1 @ F,0,1,1,0,12.712295,0,1 @ F,0,0,1,0,12.712295,0,1"
       radius="0"
       unit="px"
       method="auto"
       mode="F"
       chamfer_steps="1"
       flexible="false"
       use_knot_distance="true"
       apply_no_radius="true"
       apply_with_radius="true"
       only_selected="false"
       hide_knots="false" /><inkscape:path-effect
       effect="fillet_chamfer"
       id="path-effect7-0"
       is_visible="true"
       lpeversion="1"
       nodesatellites_param="F,0,0,1,0,0,0,1 @ F,0,0,1,0,0,0,1 @ F,0,1,1,0,12.712295,0,1 @ F,0,0,1,0,12.712295,0,1"
       radius="0"
       unit="px"
       method="auto"
       mode="F"
       chamfer_steps="1"
       flexible="false"
       use_knot_distance="true"
       apply_no_radius="true"
       apply_with_radius="true"
       only_selected="false"
       hide_knots="false" /><filter
       inkscape:collect="always"
       style="color-interpolation-filters:sRGB"
       id="filter4"
       x="-0.024347539"
       y="-0.024344156"
       width="1.0486951"
       height="1.0486883"><feGaussianBlur
         inkscape:collect="always"
         stdDeviation="0.30857158"
         id="feGaussianBlur4" /></filter><linearGradient
       inkscape:collect="always"
       xlink:href="#linearGradient2"
       id="linearGradient3"
       x1="70.447495"
       y1="13.650469"
       x2="70.447495"
       y2="43.876106"
       gradientUnits="userSpaceOnUse" /><linearGradient
       id="linearGradient2"
       inkscape:collect="always"><stop
         style="stop-color:#ffffff;stop-opacity:1;"
         offset="0"
         id="stop2" /><stop
         style="stop-color:#f0eff0;stop-opacity:1;"
         offset="0.48918533"
         id="stop4" /><stop
         style="stop-color:#cecacd;stop-opacity:1;"
         offset="1"
         id="stop3" /></linearGradient><linearGradient
       inkscape:collect="always"
       xlink:href="#linearGradient17"
       id="linearGradient18"
       x1="16.408041"
       y1="3.6786044"
       x2="16.408041"
       y2="11.823381"
       gradientUnits="userSpaceOnUse"
       gradientTransform="matrix(4.2689844,0,0,3.7795276,-8.0836488,-0.00226016)" /><filter
       inkscape:collect="always"
       style="color-interpolation-filters:sRGB"
       id="filter19"
       x="-0.50014521"
       y="-0.012398312"
       width="2.0002904"
       height="1.0247966"><feGaussianBlur
         inkscape:collect="always"
         stdDeviation="0.041923005"
         id="feGaussianBlur19" /></filter><inkscape:path-effect
       effect="fillet_chamfer"
       id="path-effect2-3"
       is_visible="true"
       lpeversion="1"
       nodesatellites_param="F,0,0,1,0,0,0,1 @ F,0,0,1,0,0,0,1 @ F,0,1,1,0,12.712295,0,1 @ F,0,0,1,0,12.712295,0,1"
       radius="0"
       unit="px"
       method="auto"
       mode="F"
       chamfer_steps="1"
       flexible="false"
       use_knot_distance="true"
       apply_no_radius="true"
       apply_with_radius="true"
       only_selected="false"
       hide_knots="false" /><inkscape:path-effect
       effect="fillet_chamfer"
       id="path-effect28-2"
       is_visible="true"
       lpeversion="1"
       nodesatellites_param="F,0,0,1,0,0,0,1 @ F,0,0,1,0,0,0,1 @ F,0,1,1,0,12.712295,0,1 @ F,0,0,1,0,12.712295,0,1"
       radius="0"
       unit="px"
       method="auto"
       mode="F"
       chamfer_steps="1"
       flexible="false"
       use_knot_distance="true"
       apply_no_radius="true"
       apply_with_radius="true"
       only_selected="false"
       hide_knots="false" /><inkscape:path-effect
       effect="fillet_chamfer"
       id="path-effect30-9"
       is_visible="true"
       lpeversion="1"
       nodesatellites_param="F,0,0,1,0,0,0,1 @ F,0,0,1,0,0,0,1 @ F,0,1,1,0,12.712295,0,1 @ F,0,0,1,0,12.712295,0,1"
       radius="0"
       unit="px"
       method="auto"
       mode="F"
       chamfer_steps="1"
       flexible="false"
       use_knot_distance="true"
       apply_no_radius="true"
       apply_with_radius="true"
       only_selected="false"
       hide_knots="false" /><inkscape:path-effect
       effect="fillet_chamfer"
       id="path-effect7-0-1"
       is_visible="true"
       lpeversion="1"
       nodesatellites_param="F,0,0,1,0,0,0,1 @ F,0,0,1,0,0,0,1 @ F,0,1,1,0,12.712295,0,1 @ F,0,0,1,0,12.712295,0,1"
       radius="0"
       unit="px"
       method="auto"
       mode="F"
       chamfer_steps="1"
       flexible="false"
       use_knot_distance="true"
       apply_no_radius="true"
       apply_with_radius="true"
       only_selected="false"
       hide_knots="false" /><inkscape:path-effect
       effect="fillet_chamfer"
       id="path-effect28-5"
       is_visible="true"
       lpeversion="1"
       nodesatellites_param="F,0,0,1,0,0,0,1 @ F,0,0,1,0,0,0,1 @ F,0,1,1,0,12.712295,0,1 @ F,0,0,1,0,12.712295,0,1"
       radius="0"
       unit="px"
       method="auto"
       mode="F"
       chamfer_steps="1"
       flexible="false"
       use_knot_distance="true"
       apply_no_radius="true"
       apply_with_radius="true"
       only_selected="false"
       hide_knots="false" /></defs><g
     inkscape:label="Layer 1"
     inkscape:groupmode="layer"
     id="layer1"
     transform="translate(-29.972808,-36.208395)"
     style="display:inline"><g
       id="g30"
       inkscape:label="vector_head"
       style="display:inline"
       transform="matrix(0.26458333,0,0,0.26458333,29.973806,36.208993)"><path
         id="path27"
         style="display:inline;fill:url(#linearGradient29);stroke:none;stroke-width:6.663;stroke-dasharray:none;stroke-opacity:1"
         d="M 0.00152356,0 H 1054.6669 v 43.994351 a 12.712295,12.712295 135 0 1 -12.7123,12.712295 l -1029.240781,0 A 12.712295,12.712295 45 0 1 0.00152356,43.994351 Z"
         sodipodi:nodetypes="ccccc"
         inkscape:label="header"
         inkscape:original-d="M 0.00152356,0 H 1054.6669 v 56.706646 c -351.55513,0 -703.11025,0 -1054.66537644,0 z"
         inkscape:path-effect="#path-effect28" /><path
         style="display:inline;mix-blend-mode:normal;fill:#000000;fill-opacity:1;stroke-width:0.045;stroke-dasharray:none;filter:url(#filter4)"
         d="m 24.98938,44.558313 c -0.909856,-0.08623 -1.932966,-0.381797 -2.793828,-0.807122 -2.231062,-1.102293 -3.786745,-3.172415 -4.268417,-5.679913 l -0.102573,-0.533972 v -8.17871 -8.178712 l 0.102573,-0.533966 c 0.633174,-3.296191 3.096909,-5.759927 6.393093,-6.393101 l 0.533968,-0.102573 h 8.178715 8.17871 l 0.533967,0.102573 c 3.296191,0.633174 5.75992,3.09691 6.393102,6.393101 l 0.102572,0.533966 v 8.178712 8.17871 l -0.102572,0.533972 c -0.633069,3.295609 -3.060308,5.731512 -6.369336,6.392066 l -0.512665,0.10234 -8.043533,0.0048 c -4.423937,0.0027 -8.124639,-0.0028 -8.223776,-0.01223 z m 9.598165,-5.06603 c 2.784007,-0.28416 4.979638,-1.43703 6.447759,-3.385562 1.207562,-1.602708 1.820728,-3.463794 1.95252,-5.92635 0.124896,-2.333588 -0.249836,-4.459181 -1.081666,-6.135654 -1.160147,-2.338151 -3.089213,-3.879505 -5.673862,-4.533519 -1.434856,-0.363074 -3.446437,-0.460634 -5.027675,-0.243843 -4.184603,0.57372 -6.990495,3.212882 -7.786198,7.323515 -0.193194,0.998063 -0.231509,1.456097 -0.231509,2.767726 0,1.344231 0.03927,1.793571 0.248004,2.838892 0.580447,2.906596 2.265259,5.176289 4.722674,6.36217 1.741444,0.840368 4.051337,1.175404 6.429953,0.932625 z m -2.117902,-4.294932 c -1.31603,-0.224794 -2.085802,-0.865512 -2.604489,-2.167848 -0.177035,-0.444492 -0.357506,-1.123933 -0.434589,-1.636171 -0.157622,-1.047402 -0.148576,-3.057691 0.01838,-4.085186 0.227085,-1.397503 0.676238,-2.397751 1.370987,-3.053143 0.583022,-0.55 1.216671,-0.765148 2.258036,-0.766711 0.710036,-7.1e-4 1.108946,0.07471 1.616434,0.307043 1.063773,0.487012 1.788805,1.785595 2.062001,3.693198 0.116155,0.811046 0.118179,3.126845 0.0036,3.897842 -0.202326,1.359225 -0.668122,2.413664 -1.341711,3.037286 -0.674506,0.624475 -1.915533,0.950127 -2.948468,0.77369 z"
         id="path4"
         sodipodi:nodetypes="csscccsscccsscccssccccsssssssscsscsssscsscscc"
         inkscape:label="logo_shadow" /><path
         style="display:inline;fill:url(#linearGradient3);fill-opacity:1;stroke-width:0.0450617"
         d="m 24.28943,43.858363 c -0.909856,-0.08623 -1.932966,-0.381797 -2.793828,-0.807122 -2.231062,-1.102293 -3.786745,-3.172415 -4.268417,-5.679913 l -0.102573,-0.533972 v -8.17871 -8.178712 l 0.102573,-0.533966 c 0.633174,-3.296191 3.096909,-5.759927 6.393093,-6.393101 l 0.533968,-0.102573 h 8.178715 8.17871 l 0.533967,0.102573 c 3.296191,0.633174 5.75992,3.09691 6.393102,6.393101 l 0.102572,0.533966 v 8.178712 8.17871 l -0.102572,0.533972 c -0.633069,3.295609 -3.060308,5.731512 -6.369336,6.392066 l -0.512665,0.10234 -8.043533,0.0048 c -4.423937,0.0027 -8.124639,-0.0028 -8.223776,-0.01223 z m 9.598165,-5.06603 c 2.784007,-0.28416 4.979638,-1.43703 6.447759,-3.385562 1.207562,-1.602708 1.820728,-3.463794 1.95252,-5.92635 0.124896,-2.333588 -0.249836,-4.459181 -1.081666,-6.135654 -1.160147,-2.338151 -3.089213,-3.879505 -5.673862,-4.533519 -1.434856,-0.363074 -3.446437,-0.460634 -5.027675,-0.243843 -4.184603,0.57372 -6.990495,3.212882 -7.786198,7.323515 -0.193194,0.998063 -0.231509,1.456097 -0.231509,2.767726 0,1.344231 0.03927,1.793571 0.248004,2.838892 0.580447,2.906596 2.265259,5.176289 4.722674,6.36217 1.741444,0.840368 4.051337,1.175404 6.429953,0.932625 z m -2.117902,-4.294932 c -1.31603,-0.224794 -2.085802,-0.865512 -2.604489,-2.167848 -0.177035,-0.444492 -0.357506,-1.123933 -0.434589,-1.636171 -0.157622,-1.047402 -0.148576,-3.057691 0.01838,-4.085186 0.227085,-1.397503 0.676238,-2.397751 1.370987,-3.053143 0.583022,-0.55 1.216671,-0.765148 2.258036,-0.766711 0.710036,-7.1e-4 1.108946,0.07471 1.616434,0.307043 1.063773,0.487012 1.788805,1.785595 2.062001,3.693198 0.116155,0.811046 0.118179,3.126845 0.0036,3.897842 -0.202326,1.359225 -0.668122,2.413664 -1.341711,3.037286 -0.674506,0.624475 -1.915533,0.950127 -2.948468,0.77369 z"
         id="path39"
         sodipodi:nodetypes="csscccsscccsscccssccccsssssssscsscsssscsscscc"
         inkscape:label="logo" /><path
         id="path1-6"
         style="display:inline;opacity:0.9;mix-blend-mode:normal;fill:none;fill-opacity:1;stroke:#d1d1d1;stroke-width:0.991645;stroke-dasharray:none;stroke-opacity:1"
         d="M 1052.7201,-0.00370481 V 42.011137 c 0,7.023453 -5.6719,12.717086 -12.6684,12.717083 H 14.366746 c -6.9965509,0 -12.6683765,-5.693632 -12.6683765,-12.717083 V -0.00370481"
         sodipodi:nodetypes="ccccsc"
         inkscape:label="edging_white"
         transform="translate(0.00137197,0.0023622)" /><path
         style="baseline-shift:baseline;display:inline;overflow:visible;opacity:1;mix-blend-mode:normal;vector-effect:none;fill:#000000;fill-opacity:1;filter:url(#filter19);enable-background:accumulate;stop-color:#000000;stop-opacity:1"
         d="m 16.304687,3.6953125 v 8.1152345 h 0.201172 V 3.6953125 Z"
         id="path16"
         transform="matrix(4.2689844,0,0,3.7795276,-7.6374201,0.37070951)"
         inkscape:label="vertical_bar_shadow"
         sodipodi:nodetypes="ccccc" /><path
         style="baseline-shift:baseline;display:inline;overflow:visible;opacity:1;fill:url(#linearGradient18);fill-opacity:1;stroke-width:4.41848;stroke-dasharray:none;enable-background:accumulate;stop-color:#000000;stop-opacity:1"
         d="m 61.520806,13.964275 v 30.671753 h 0.8588 V 13.964275 Z"
         id="path19"
         inkscape:label="vertical_bar" /></g><g
       id="layer1-6"
       transform="matrix(0.02979521,0,0,0.02805236,30.597173,35.897012)"
       style="display:inline"
       inkscape:label="hat"><path
         d="m 234.10295,28.783327 c -28.10056,7.733968 -56.90414,23.114414 -77.16658,38.006479 -20.26243,14.892057 -73.190777,52.416304 -85.274538,64.306944 -11.715979,11.52873 -25.555008,15.55018 -31.610801,29.75626 -2.335424,5.47857 15.83661,22.00519 19.397534,23.721 9.241286,4.45282 24.304529,-3.44276 31.177964,-3.91429 22.307191,-1.53031 20.260941,-4.44071 42.854281,10.85078 -4.18054,4.22051 -5.28945,3.62531 -9.79418,39.87762 -1.96406,15.80606 -0.98779,48.69227 7.1038,55.15359 8.03941,6.41966 32.95106,-23.62116 40.93855,-19.7897 -0.004,0.006 -0.002,0.0211 -0.005,0.0264 -0.002,0.005 -0.004,0.0222 -0.005,0.0264 4.7e-4,0.004 -0.006,0.0233 -0.005,0.0264 0.003,0.003 0.0211,0.003 0.0249,0.005 0.0243,0.007 0.0777,0.004 0.12879,-0.002 0.015,0.007 0.0346,0.002 0.0497,0.01 0.0565,0.0271 0.1079,0.0591 0.16488,0.0866 l 0.0475,-0.12728 c 3.78138,-0.97727 33.26276,-13.96581 60.17617,-8.74298 15.17141,2.94415 39.36936,-5.30957 53.29004,-9.61521 22.07602,-6.82803 53.06775,-12.99841 72.72796,-13.35072 14.48306,-0.25953 27.58714,-8.45898 41.52062,-9.41484 8.22039,-0.56393 0.59821,-27.06599 0.4283,-29.86559 -0.81659,-13.45508 -17.56507,-34.13032 -26.19103,-52.50369 -8.62596,-18.37338 -23.08213,-41.697 -39.00385,-59.986157 -15.92034,-18.289939 -37.40028,-41.972174 -52.5239,-49.259355 -15.12361,-7.287181 -17.9532,-13.675443 -48.45111,-5.281661 z"
         style="fill:#d00000;fill-opacity:1;fill-rule:evenodd;stroke:#000000;stroke-width:0.833495px;stroke-linecap:butt;stroke-linejoin:miter;stroke-opacity:1"
         id="path1309"
         sodipodi:nodetypes="sssssscsscccccccccsssssscss" /><path
         d="m 166.95567,93.343683 c -18.23272,4.41659 -33.84758,62.691407 -56.31899,72.821827 -14.697321,6.62576 -54.749039,16.69269 -51.188115,18.4085 9.241286,4.45282 24.304529,-3.44276 31.177964,-3.91429 22.307191,-1.53031 45.167011,-4.49872 67.760351,10.79277 -4.18054,4.22051 2.45801,-0.32326 -6.08769,36.69347 -3.01352,13.05342 -9.59873,46.91908 -1.50714,53.3804 8.03941,6.41966 12.94944,-18.60581 20.93693,-14.77435 -0.004,0.006 -0.002,0.0211 -0.005,0.0264 -0.002,0.005 -0.004,0.0222 -0.005,0.0264 4.7e-4,0.004 -0.006,0.0233 -0.005,0.0264 0.003,0.003 0.0211,0.003 0.0249,0.005 0.0243,0.007 0.0777,0.004 0.12879,-0.002 0.015,0.007 0.0346,0.002 0.0497,0.01 0.0565,0.0271 0.1079,0.0591 0.16488,0.0866 l 0.0475,-0.12728 c 3.78138,-0.97727 33.26276,-13.96581 60.17617,-8.74298 15.17141,2.94415 39.36936,-5.30957 53.29004,-9.61521 22.07602,-6.82803 53.06775,-12.99841 72.72796,-13.35072 14.48306,-0.25953 27.58714,-8.45898 41.52062,-9.41484 8.22039,-0.56393 -51.08531,4.52064 -27.44964,-12.57577 10.48531,-7.58433 -104.98388,15.80767 -149.31404,-34.77677 -43.89537,-50.0883 -37.45534,-89.505577 -56.12656,-84.982777 z"
         style="opacity:0.101124;fill:#0e0000;fill-opacity:1;fill-rule:evenodd;stroke:none;stroke-width:1px;stroke-linecap:butt;stroke-linejoin:miter;stroke-opacity:1"
         id="path5882" /><path
         d="m 41.923132,154.63221 c 3.550897,2.3529 27.397959,32.51694 30.215216,30.40575 0.340584,-3.33088 -2.440653,-4.64208 -4.39708,-5.02241 2.619616,-3.32925 3.113447,-6.81056 -1.432527,-7.10965 -5.040198,-0.88997 -10.542525,-1.51433 -5.132485,-6.93595 2.497843,-3.03871 -0.167946,-8.43506 -1.701721,-11.17993 -4.029518,-2.17638 -7.065984,-6.11435 -8.717627,-8.79126"
         style="opacity:0.269663;fill:#000000;fill-opacity:1;fill-rule:evenodd;stroke:#000000;stroke-width:0.830161;stroke-linecap:butt;stroke-linejoin:miter;stroke-miterlimit:4;stroke-dasharray:none;stroke-opacity:1"
         id="path5878" /><path
         d="m 365.59735,219.58638 c -7.45124,-2.6426 -16.80117,-5.69478 -23.38958,-5.28735 -4.52499,-3.82248 -7.99822,0.88787 -11.91885,2.14156 -0.65797,-7.35971 -11.51071,3.11231 -16.29132,3.17249 -3.39452,1.94833 -1.05481,-5.80054 -7.13354,-2.85309 -7.55754,0.71399 -12.23241,1.23324 -17.83876,3.66049 -1.34666,8.01279 -13.44905,12.52661 -15.26046,3.7443 -6.59856,2.87141 -18.86884,8.44118 -18.94833,-0.64164 -10.56431,8.19396 -10.90033,15.59836 -21.21381,19.55298 0.9126,-7.09218 -22.37063,-10.90803 -25.54443,-3.46471 -6.38963,2.57308 1.32915,-9.32097 -7.90455,-6.05233 -10.40062,-3.02386 -4.34704,17.93464 -25.55362,9.36597 -11.8077,-0.37983 -5.2687,16.71929 -13.06117,23.88224 -2.0761,7.53231 -11.08359,-2.62404 -14.72934,-2.06009 0.84794,11.92658 3.40768,7.88228 0.71924,15.9966 -1.60415,10.16538 -3.75129,15.25548 7.43178,17.37239 3.62121,-4.90361 -0.18204,-2.829 0.62793,6.21747 6.45765,-1.87978 14.94635,-12.63999 14.07505,-1.58144 4.38202,-6.67329 18.25435,-10.15139 18.07994,-17.33913 7.02184,0.73709 14.90236,8.57944 20.82979,-0.95299 5.95076,-7.0412 14.50445,-10.30685 14.59427,-4.86854 7.23377,6.7565 7.95724,5.38728 15.478,3.66781 -1.93719,-8.71166 17.59935,-0.59858 7.28271,-9.27171 4.09757,-4.10343 15.18748,-6.50139 21.59622,-5.07542 5.66947,8.25419 22.94407,8.93721 25.63186,-1.74704 0.56398,-8.40429 13.68224,-11.27875 18.58724,-5.46823 8.52969,-7.4786 21.98421,3.38849 29.32409,-2.3442 -6.59758,-8.56295 9.32443,-14.15812 12.29788,-7.59298 5.84169,-3.13663 11.27804,-14.42284 17.66836,-6.34283 7.34987,-2.39523 16.32468,-5.72557 22.54222,-8.22182 4.66667,7.69315 16.74733,-0.2211 11.51054,-9.53228 -2.83483,-6.65069 9.30974,3.27444 6.00348,-5.16367 -3.76088,-9.07689 -9.04264,-21.69181 -15.51378,-21.2748 -8.8124,-2.20185 -14.03766,3.74492 -14.40344,12.16045 -0.11143,-6.14114 -10.52227,-0.15499 -15.9832,2.07193 l -2.99388,0.71227 -3.57688,-2.52294"
         style="opacity:0.294045;fill:#000000;fill-opacity:1;fill-rule:evenodd;stroke:#000000;stroke-width:0.601426px;stroke-linecap:butt;stroke-linejoin:miter;stroke-opacity:1"
         id="path5003" /><path
         d="m 370.52395,221.8307 c -7.45124,-2.6426 -14.35623,-3.01411 -20.94463,-2.60667 -4.52499,-3.82249 -9.89492,-2.56891 -13.81555,-1.31521 -0.65796,-7.35972 -9.61402,6.56907 -14.39462,6.62925 -3.39454,1.94834 -1.05481,-5.80052 -7.13355,-2.85309 -7.55754,0.71399 -16.31902,-3.97224 -21.92537,-1.54499 -1.34666,8.01279 -13.44905,12.52661 -15.26045,3.7443 -6.59857,2.87142 -14.78225,13.64667 -14.86172,4.56385 -12.38454,-0.5429 -17.69005,11.63327 -28.00354,15.58789 0.91261,-7.09217 -15.5809,-6.94295 -18.75471,0.50038 -6.38962,2.57308 -1.69916,-13.4386 -10.93286,-10.16996 -10.40061,-3.02386 -10.11666,17.69747 -22.52531,13.48359 -11.80769,-0.37983 -10.15859,11.35793 -17.95107,18.52087 -2.07609,7.53232 -6.19368,2.73734 -9.83944,3.30129 5.99914,8.51379 -35.20005,8.96678 -27.95893,22.09673 -1.60415,10.16538 16.09799,16.99817 28.83899,17.36239 3.62121,-4.9036 7.08893,-8.91913 7.8989,0.12733 6.45764,-1.87977 14.94635,-12.63998 14.07504,-1.58143 4.38203,-6.67329 18.25435,-10.15139 18.07994,-17.33913 7.02184,0.73709 14.90236,8.57943 20.82979,-0.953 5.95076,-7.04119 6.93352,-1.29602 7.02333,4.14228 7.23377,6.75651 15.52819,-3.62354 23.04894,-5.343 -1.93719,-8.71165 17.59935,-0.59858 7.28272,-9.27172 4.09756,-4.10342 15.18748,-6.50139 21.59622,-5.07542 5.62317,5.3341 22.94406,8.93722 25.63186,-1.74704 0.56398,-8.40429 13.68223,-11.27874 18.58724,-5.46823 8.52968,-7.47859 21.9842,3.3885 29.32408,-2.34419 -6.59758,-8.56296 9.32444,-14.15812 12.29788,-7.59298 5.84169,-3.13663 11.27804,-14.42284 17.66837,-6.34283 7.34985,-2.39523 16.32467,-5.72558 22.54222,-8.22183 4.66666,7.69315 16.74733,-0.2211 11.51053,-9.53227 -2.83483,-6.65069 9.30974,3.27444 6.00349,-5.16367 0.0738,-9.65646 -3.56311,-24.59965 -15.51378,-21.2748 -8.81241,-2.20185 -14.03766,3.74491 -14.40345,12.16044 -0.11143,-6.14113 -14.02552,-3.92353 -19.48644,-1.69661 l -1.78895,0.9461 -1.27857,1.01177"
         style="fill:#ffffff;fill-opacity:1;fill-rule:evenodd;stroke:#000000;stroke-width:0.601426px;stroke-linecap:butt;stroke-linejoin:miter;stroke-opacity:1"
         id="path1307"
         sodipodi:nodetypes="ccccccccccccccccccccccccccccccccccccc" /><path
         d="m 125.92583,214.05314 c 3.14012,-40.84748 53.53945,-62.61506 49.90524,-95.28545 -2.14808,-19.310467 -19.537,-4.67273 -13.86936,13.44173"
         style="fill:none;fill-opacity:0.75;fill-rule:evenodd;stroke:#000000;stroke-width:0.833495px;stroke-linecap:butt;stroke-linejoin:miter;stroke-opacity:1"
         id="path3126"
         sodipodi:nodetypes="csc" /><path
         d="m 163.97802,266.61875 c -2.07609,7.53231 -6.19368,2.73733 -9.83944,3.30128 5.99914,8.51379 -35.36338,8.7562 -28.12227,21.88615 -1.60414,10.16538 15.28761,16.81927 29.00234,17.57297 3.6212,-4.9036 7.08892,-8.91913 7.89889,0.12734 6.45764,-1.87978 14.94635,-12.63999 14.07505,-1.58144 4.38202,-6.67328 18.25434,-10.15139 18.07993,-17.33912 7.02184,0.73708 14.56587,7.34967 20.4933,-2.18275 5.95076,-7.0412 7.27,-0.0663 7.35982,5.37202 7.23377,6.75652 15.52819,-3.62353 23.04895,-5.34299 -1.9372,-8.71166 8.86645,-1.54524 7.2827,-9.27172 -1.03721,-5.06015 33.64493,-3.56205 28.65668,-8.51045 -14.90587,-14.78677 -38.19112,7.49212 -41.55999,6.0701 -3.36887,-1.42201 -7.09125,-0.55957 -2.38487,-2.71925 4.70639,-2.15967 -6.74248,1.39249 -16.27743,-1.99436 -9.53496,-3.38685 -16.51439,0.89493 -17.1513,9.34281 -7.18176,-4.46668 -7.69633,0.60685 -18.88509,3.71804 7.12945,-10.42281 -12.5996,-2.76884 -12.5996,-2.76884 0,0 3.43729,-11.42797 -2.73938,-9.91964 3.32068,-5.96418 -0.36489,-7.80159 -0.36489,-7.80159 0,0 1.81907,-5.12151 -5.9734,2.04144 z"
         style="opacity:0.11236;fill:#000000;fill-opacity:1;fill-rule:evenodd;stroke:none;stroke-width:0.721572px;stroke-linecap:butt;stroke-linejoin:miter;stroke-opacity:1"
         id="path3249"
         sodipodi:nodetypes="ccccccccccssssscccccc" /><path
         d="m 46.944746,146.2449 c -1.301678,-2.31828 -5.35751,-2.9566 -5.879409,-4.92258 0.90649,-2.28341 -2.659108,-0.62717 -3.361697,-1.88241 -4.194454,3.43361 -9.9845,4.91989 -13.092707,9.64254 1.652786,-0.36247 1.648832,-2.77858 -0.157056,-0.99615 -3.401098,1.68966 -6.688157,4.65771 -5.409253,8.89282 0.309772,2.17325 -2.425553,4.04333 0.913564,4.55805 -0.435409,3.47934 -5.654943,3.33284 -5.658053,6.4037 1.15534,3.3495 0.647111,6.84015 -2.100735,9.18954 -2.7180283,2.54178 -1.598648,6.28312 -1.499585,9.37085 -1.3669853,2.06531 -2.1364273,3.98573 -0.334716,5.95301 0.381454,3.5482 3.326995,5.89755 3.348942,9.5893 1.240053,1.93493 3.726708,1.8152 4.99685,4.00177 3.710475,0.3154 3.982719,5.49648 7.517208,6.2151 3.036183,0.99028 6.628635,0.30362 9.364415,1.02979 2.243733,1.81902 4.819206,3.08691 7.64389,3.59772 3.550896,2.25998 4.757769,-3.36478 6.906731,-5.17595 0.111428,-2.83195 2.146008,-3.05232 3.508535,-0.6677 3.101,2.10235 6.314017,-1.51811 8.537176,-3.43384 2.173489,-2.36905 4.611889,-4.42 7.032089,-6.49716 3.435924,-3.87856 4.655818,-9.42971 4.463567,-14.53502 0.340584,-3.19933 -2.634125,-3.37634 -4.590549,-3.74166 0.884588,-2.68233 3.113445,-6.54159 -1.432528,-6.82885 -2.606958,-0.6809 -8.517294,-3.59356 -5.132485,-6.66202 2.497843,-2.91871 -0.939756,-6.84771 -2.473531,-9.48419 -2.656218,-2.11406 -4.199508,-5.05895 -5.85115,-7.63014 -3.197679,-0.50952 -6.194337,-2.45275 -7.009506,-5.8451 -0.853644,-2.69404 -0.236398,-0.69903 0.03297,0.61246"
         style="fill:#ffffff;fill-opacity:1;fill-rule:evenodd;stroke:#000000;stroke-width:0.813602;stroke-linecap:butt;stroke-linejoin:miter;stroke-miterlimit:4;stroke-dasharray:none;stroke-opacity:1"
         id="path2251" /><path
         d="m 20.404837,181.84614 c -1.601293,-1.9684 4.721412,-1.04116 4.199512,-3.00714 0.90649,-2.28339 -0.178267,-2.37846 -0.880857,-3.63371 -4.194453,3.43361 -3.206637,-4.70088 -6.314844,0.0218 1.652786,-0.36246 1.381011,-6.33357 -0.424877,-4.55114 -3.401098,1.68965 -2.680526,-5.80591 -2.683636,-2.73505 1.15534,3.3495 0.647111,6.84015 -2.100735,9.18954 -2.7180283,2.54178 -1.598648,6.28312 -1.499585,9.37085 -1.3669853,2.06531 -2.1364273,3.98573 -0.334716,5.95301 0.381454,3.5482 3.326995,5.89755 3.348942,9.5893 1.240053,1.93493 3.726708,1.8152 4.99685,4.00177 3.710475,0.3154 3.982719,5.49648 7.517208,6.2151 3.036183,0.99028 6.628635,0.30362 9.364415,1.02979 2.243733,1.81902 4.819206,3.08691 7.64389,3.59772 3.550896,2.25998 4.757769,-3.36478 6.906731,-5.17595 0.111428,-2.83195 2.146008,-3.05232 3.508535,-0.6677 3.101,2.10235 6.314017,-1.51811 8.537176,-3.43384 2.173489,-2.36905 -8.345955,0.35931 -5.925755,-1.71784 3.43592,-3.87857 -7.75248,5.41378 -7.944735,0.30847 0.340581,-3.19932 -12.370379,4.07056 -9.678506,-1.55391 0.884591,-2.68233 1.535909,-0.7479 -3.010064,-1.03517 -2.606958,-0.6809 -9.803527,-5.4936 -6.418718,-8.56206 2.497844,-2.91871 -1.342064,0.45638 -2.875839,-2.18009 -2.656219,-2.11406 -0.95965,-0.95001 -2.611292,-3.52118 -3.197679,-0.50952 -1.791784,-1.81661 -2.606953,-5.20895 -1.383361,3.98006 -0.981514,-3.60508 -0.712147,-2.29359 z"
         style="opacity:0.0955056;fill:#000000;fill-opacity:1;fill-rule:evenodd;stroke:none;stroke-width:0.996;stroke-linecap:butt;stroke-linejoin:miter;stroke-miterlimit:4;stroke-dasharray:none;stroke-opacity:1"
         id="path4128" /><path
         d="m 133.30254,191.25987 c 0,0 37.51237,-32.41001 40.67073,-45.77987 2.955,-12.50888 2.57264,-31.60315 -1.8531,-35.13721 -4.42575,-3.53406 -10.24707,2.57829 -10.86062,9.81603 -0.61354,7.23773 1.0926,12.8933 4.06352,26.69912 1.34679,6.25851 -23.85546,27.01933 -25.68656,34.02079 -1.8311,7.00146 -7.88489,12.08657 -6.33397,10.38114 z"
         style="fill:#000000;fill-opacity:0.223464;fill-rule:evenodd;stroke:none;stroke-width:1px;stroke-linecap:butt;stroke-linejoin:miter;stroke-opacity:1"
         id="path5880"
         sodipodi:nodetypes="csssssc" /></g></g></svg>
